<svg width="64" height="64" fill="none" xmlns="http://www.w3.org/2000/svg"><path d="M61.8 32.39A1.034 1.034 0 0061 32h-7V20a1 1 0 00-1-1H19a1 1 0 00-1 1v15h-.28l-.77-2.32A1.015 1.015 0 0016 32h-1V16a1 1 0 00-1-1h-4v-3h2v-2h-2V9H8v1H6v2h2v3H3a1 1 0 00-1 1v4a1 1 0 001 1h.92l-.85 11H3a1 1 0 00-1 1v13.42c0 .195.056.385.16.55l3 4.58A1.012 1.012 0 006 52h50a1 1 0 00.96-.73l5-18a.99.99 0 00-.16-.88zM37 21h15v6H37v-6zm0 8h15v3.59L49.59 35H37v-6zm-17-8h15v6H20v-6zm0 8h15v6H20v-6zM4 17h9v2H4v-2zm9 4v11H5.08l.85-11H13zm43.35 25H8v2h47.8l-.56 2H6.54l-1.31-2H6v-2H4V34h11.28l.77 2.32A1.015 1.015 0 0017 37h33c.265-.002.52-.106.71-.29l2.7-2.71h6.27l-3.33 12z" fill="#247D58"/><path d="M24 31h-2v2h2v-2zm3 0h-2v2h2v-2zm3 0h-2v2h2v-2zm3 0h-2v2h2v-2zm8 0h-2v2h2v-2zm3 0h-2v2h2v-2zm3 0h-2v2h2v-2zm3 0h-2v2h2v-2zm-26-8h-2v2h2v-2zm3 0h-2v2h2v-2zm3 0h-2v2h2v-2zm3 0h-2v2h2v-2zm8 0h-2v2h2v-2zm3 0h-2v2h2v-2zm3 0h-2v2h2v-2zm3 0h-2v2h2v-2zm4 17h-2v2h2v-2zm-5 0h-2v2h2v-2zm-5 0h-2v2h2v-2z" fill="#247D58"/></svg>