<svg width="64" height="64" fill="none" xmlns="http://www.w3.org/2000/svg"><path d="M62 21V5a3 3 0 00-3-3H43a3 3 0 00-3 3v2.29a26.116 26.116 0 00-16 0V5a3 3 0 00-3-3H5a3 3 0 00-3 3v16a3 3 0 003 3h2.288a25.489 25.489 0 000 16H5a3 3 0 00-3 3v16a3 3 0 003 3h16a3 3 0 003-3v-2.288a25.49 25.49 0 0016 0V59a3 3 0 003 3h16a3 3 0 003-3V43a3 3 0 00-3-3h-2.288a25.49 25.49 0 000-16H59a3 3 0 003-3zm-3 1H43a1 1 0 01-1-1V10h6v3a1 1 0 001.707.707L51 12.414l1.293 1.293A1 1 0 0054 13v-3h6v11a1 1 0 01-1 1zm-9 20h2v6.586l-.293-.293a1 1 0 00-1.414 0l-.293.293V42zm-2 4h-6v-3a1 1 0 011-1h5v4zm-36-4h2v6.586l-.293-.293a1 1 0 00-1.414 0l-.293.293V42zm4 0h5a1 1 0 011 1v3h-6v-4zm5-18c.366-.002.73-.072 1.07-.206A17.16 17.16 0 0023.8 24.9a30.294 30.294 0 00-.776 6.1h-5.987a14.968 14.968 0 012.277-7H21zm19.385-1.558c-.245.165-.5.318-.75.469a16.532 16.532 0 00-2.55-5.019A15 15 0 0140 19.314V21c.003.506.136 1.002.385 1.442zm-2.557 1.386a15.076 15.076 0 01-11.656 0C27.439 19.752 29.6 17 32 17c2.4 0 4.561 2.752 5.828 6.828zM25.024 31a28.79 28.79 0 01.639-5.224 17.016 17.016 0 0012.674 0A28.79 28.79 0 0138.976 31H25.024zm13.952 2a28.852 28.852 0 01-.639 5.224 17.016 17.016 0 00-12.674 0A28.852 28.852 0 0125.024 33h13.952zM24.365 22.911c-.254-.151-.5-.3-.75-.469.25-.44.382-.936.385-1.442v-1.686a15.023 15.023 0 012.915-1.422 16.532 16.532 0 00-2.55 5.019zM23.026 33c.051 2.054.311 4.098.776 6.1-.599.335-1.177.705-1.732 1.109A2.973 2.973 0 0021 40h-1.679a14.84 14.84 0 01-2.284-7h5.989zm.589 8.558c.245-.165.5-.318.75-.469a16.522 16.522 0 002.551 5.019A14.76 14.76 0 0124 44.679V43a2.965 2.965 0 00-.385-1.442zm2.557-1.386a15.076 15.076 0 0111.656 0C36.561 44.248 34.4 47 32 47c-2.4 0-4.561-2.752-5.828-6.828zm13.463.917c.254.151.505.3.75.469-.25.44-.382.936-.385 1.442v1.686a14.995 14.995 0 01-2.915 1.422 16.532 16.532 0 002.55-5.019zM43 40c-.366.002-.73.072-1.07.206A17.16 17.16 0 0040.2 39.1c.465-2.002.725-4.046.776-6.1h5.989a14.968 14.968 0 01-2.277 7H43zm-2.026-9a30.294 30.294 0 00-.776-6.1 17.146 17.146 0 001.732-1.109c.34.135.703.206 1.07.209h1.686a14.968 14.968 0 012.277 7h-5.989zM50 4h2v6.586l-.293-.293a1 1 0 00-1.414 0l-.293.293V4zm10 1v3h-6V4h5a1 1 0 011 1zM43 4h5v4h-6V5a1 1 0 011-1zm-3 5.4v7.607a16.963 16.963 0 00-16 0V9.4a24.05 24.05 0 0116 0zM22 5v3h-6V4h5a1 1 0 011 1zM12 4h2v6.586l-.293-.293a1 1 0 00-1.414 0l-.293.293V4zM5 4h5v4H4V5a1 1 0 011-1zM4 21V10h6v3a1 1 0 001.707.707L13 12.414l1.293 1.293A1 1 0 0016 13v-3h6v11a1 1 0 01-1 1H5a1 1 0 01-1-1zm4 11a23.628 23.628 0 011.4-8h7.608a16.951 16.951 0 000 16H9.4A23.628 23.628 0 018 32zM5 42h5v4H4v-3a1 1 0 011-1zm16 18H5a1 1 0 01-1-1V48h6v3a1 1 0 001.707.707L13 50.414l1.293 1.293A1 1 0 0016 51v-3h6v11a1 1 0 01-1 1zm3-5.4v-7.61a16.951 16.951 0 0016 0v7.61a24.05 24.05 0 01-16 0zM59 60H43a1 1 0 01-1-1V48h6v3a1 1 0 001.707.707L51 50.414l1.293 1.293A1 1 0 0054 51v-3h6v11a1 1 0 01-1 1zm1-17v3h-6v-4h5a1 1 0 011 1zm-4-11a23.627 23.627 0 01-1.4 8H47a16.963 16.963 0 000-16h7.6a23.627 23.627 0 011.4 8z" fill="#247D58"/></svg>