<svg width="64" height="64" fill="none" xmlns="http://www.w3.org/2000/svg"><path d="M32 16c1.221 0 2 .592 2 1a1 1 0 002 0c0-1.421-1.259-2.571-3-2.9V13a1 1 0 00-2 0v1.1c-1.741.327-3 1.477-3 2.9 0 1.682 1.757 3 4 3 1.221 0 2 .592 2 1 0 .408-.779 1-2 1s-2-.592-2-1a1 1 0 00-2 0c0 1.421 1.259 2.571 3 2.9V25a1 1 0 002 0v-1.1c1.741-.327 3-1.477 3-2.9 0-1.682-1.757-3-4-3-1.221 0-2-.592-2-1 0-.408.779-1 2-1zm-4-6h8a1 1 0 100-2h-8a1 1 0 100 2zm0 20h8a1 1 0 000-2h-8a1 1 0 000 2zm-8 12h24a1 1 0 000-2H20a1 1 0 000 2zm0-4h24a1 1 0 000-2H20a1 1 0 000 2zm20 6H20a1 1 0 000 2h20a1 1 0 000-2zm0 4H20a1 1 0 000 2h20a1 1 0 000-2zm0-18h1a1 1 0 000-2h-1a1 1 0 000 2zm-17 0h1a1 1 0 000-2h-1a1 1 0 000 2zm17-20h1a1 1 0 100-2h-1a1 1 0 100 2zm-17 0h1a1 1 0 100-2h-1a1 1 0 100 2z" fill="#247D58"/><path d="M53 42.05V24h7a1 1 0 001-1V7a5 5 0 00-5-5H16a5 5 0 00-5 5v54a.988.988 0 00.62.92.837.837 0 00.38.08c.266 0 .52-.103.71-.29l3.29-3.3 3.29 3.3a1.008 1.008 0 001.42 0l3.29-3.3 3.29 3.3a1.008 1.008 0 001.42 0l3.29-3.3 3.29 3.3a1.008 1.008 0 001.42 0l3.29-3.3 3.29 3.3a1.008 1.008 0 001.42 0l1.54-1.54A10 10 0 1053 42.05zM53 7a3 3 0 016 0v15h-6V7zm-9 52.59l-3.29-3.3a1.008 1.008 0 00-1.42 0L36 59.59l-3.29-3.3a1.008 1.008 0 00-1.42 0L28 59.59l-3.29-3.3a1.008 1.008 0 00-1.42 0L20 59.59l-3.29-3.3a1.008 1.008 0 00-1.42 0L13 58.59V7a3.01 3.01 0 013-3h36.03A4.924 4.924 0 0051 7v35.05a9.98 9.98 0 00-6.26 16.8l-.74.74zm8 .41a8 8 0 118-8 8.01 8.01 0 01-8 8z" fill="#247D58"/><path d="M57.364 48.637a1 1 0 00-1.414 0L51 53.587l-2.122-2.122a1 1 0 00-1.414 1.413l2.83 2.83a1 1 0 001.413 0l5.657-5.658a1 1 0 000-1.413z" fill="#247D58"/></svg>