<svg width="64" height="64" fill="none" xmlns="http://www.w3.org/2000/svg"><path d="M2.996 2A1 1 0 002 2.996v45a1 1 0 00.996 1.006h31.87a31.56 31.56 0 003.587 6.09c1.68 2.233 3.418 3.917 4.9 5.062.741.573 1.42 1.014 2.008 1.323.588.308 1.15.523 1.639.523.49 0 1.051-.215 1.639-.523.587-.309 1.26-.75 2.002-1.323 1.482-1.145 3.228-2.83 4.908-5.062C58.909 50.626 62 43.953 62 35.189a1 1 0 00-.848-.988l-10.15-1.586V2.996A1 1 0 0049.998 2H2.996zM16 4l21 .002V14H16V4zm-11.998.002H14c0 14.333-.002 28.665 0 42.998H4.002V4.002zm34.998 0h10v28.303l-1.844-.29a.949.949 0 00-.31 0l-7.848 1.225L39 4.002zM19 5a1 1 0 100 2 1 1 0 000-2zm15 0a1 1 0 100 2 1 1 0 000-2zM7 6a1 1 0 100 2 1 1 0 000-2zm4 0a1 1 0 100 2 1 1 0 000-2zm31 0a1 1 0 100 2 1 1 0 000-2zm4 0a1 1 0 100 2 1 1 0 000-2zm-27 5a1 1 0 100 2 1 1 0 000-2zm15 0a1 1 0 100 2 1 1 0 000-2zm-11.4 4.996l2.433 2.275-6.28 5.864-2.757-2.573L16 16l6.6-.004zm2.933 0h1.938l-.969.904-.969-.904zm4.861.004H37l-.002 5.564-14.389 13.434L16 35l-.004-5.56L30.395 16zm-14.398 8.293l1.295 1.207-1.295 1.209v-2.416zm21.002.008v2.396l-1.281-1.201 1.281-1.195zm-2.75 2.568l2.75 2.568v4.115l-4.156.649a1 1 0 00-.822.797h-1.633l-2.42-2.266 6.281-5.863zM47 34.015l12.992 2.032c-.202 7.872-3.025 13.833-6.045 17.847-1.57 2.087-3.195 3.654-4.525 4.682a12.2 12.2 0 01-1.713 1.129c-.461.26-.824.314-.709.314.114 0-.28-.071-.709-.314a12.176 12.176 0 01-1.71-1.13c-1.331-1.027-2.96-2.598-4.53-4.685-3.087-4.102-5.833-10.018-6.043-17.843L47 34.015zm-20.498.084l.96.899H25.54l.963-.899zm11.006 3.371a1 1 0 00-.842.989c-.008 5.943 2.18 10.382 4.502 13.324 1.161 1.47 2.36 2.568 3.352 3.314.495.373.939.661 1.322.865.383.205.785.375 1.158.375.373 0 .777-.17 1.16-.375.383-.204.825-.492 1.32-.865.992-.746 2.187-1.84 3.348-3.31 2.349-2.984 4.508-7.396 4.508-13.328a1 1 0 00-.842-.989l-9.338-1.46a1.067 1.067 0 00-.31 0l-9.338 1.46zm-5.467-.472c.186 3.75.939 7.085 2.014 10.002H16V37l16.041-.002zM19 38a1 1 0 100 2 1 1 0 000-2zm28 .01l8.32 1.308c-.202 5.028-2.088 8.728-4.06 11.226-1.048 1.327-2.13 2.32-2.983 2.961-.426.32-.798.552-1.062.693-.086.047-.149.083-.217.104-.07-.019-.132-.057-.219-.104a8.5 8.5 0 01-1.057-.693c-.852-.641-1.934-1.634-2.982-2.96-1.972-2.499-3.864-6.222-4.059-11.231L47 38.01zm4.982 2.983c-.261.008-.51.115-.693.303l-5.285 5.293-2.295-2.297c-.945-.945-2.363.473-1.418 1.418l3.004 2.996a1 1 0 001.41 0l6.002-6c.646-.635.181-1.734-.725-1.713zM7 43.001a1 1 0 100 2 1 1 0 000-2zm4 0a1 1 0 100 2 1 1 0 000-2zm8 1a1 1 0 100 2 1 1 0 000-2z" fill="#247D58"/></svg>