<svg version="1.1" id="Capa_1" xmlns="http://www.w3.org/2000/svg" x="0" y="0" viewBox="0 0 435.926 435.926" xml:space="preserve"><g fill="#fafafa"><path d="M434.886 210.701a8 8 0 00-6.96-4.056h-34.625v-16.208a8 8 0 00-8-8h-24.333V150.52a8 8 0 00-8-8h-31.667v-32.281a8 8 0 00-8-8h-79.667a8 8 0 00-8 8v32.281h-31.667a8 8 0 00-8 8v31.917h-24.333a8 8 0 00-8 8v31.583h-32.333v-87.5a8 8 0 00-8-8h-96a8 8 0 00-8 8v87.5H8a8 8 0 00-6.881 12.081l48.63 81.985c6.023 10.034 19.391 17.601 31.093 17.601H345.4c11.703 0 25.071-7.567 31.098-17.607l58.292-97.323a8.002 8.002 0 00.096-8.056zm-57.585-4.056h-56v-8.208h56v8.208zm-72-8.208v8.314c-13.408 1.063-22.964 10.084-27.404 15.27h-36.262v-23.583h63.666zm39.667-16h-64V158.52h64v23.917zm-103.333-64.198h63.667v24.281h-63.667v-24.281zm-39.667 40.281h63v23.917h-63V158.52zm-32.333 39.917h56v23.583h-56v-23.583zM25.301 142.52h80v15.417h-16a8 8 0 000 16h16v16.25h-16a8 8 0 000 16h16v15.833h-80v-79.5zm337.474 165.332c-3.09 5.147-11.371 9.835-17.375 9.835H80.843c-6.003 0-14.285-4.688-17.354-9.8L22.047 238.02h259.754c2.663 0 5.176-1.361 6.662-3.571.08-.118 8.07-11.804 19.447-11.804h76.056c.435.073.879.12 1.334.12s.899-.047 1.334-.12h27.174l-51.033 85.207z"/><path d="M65.301 157.94c-2.11 0-4.17.85-5.66 2.34a8.05 8.05 0 00-2.34 5.66c0 2.1.85 4.16 2.34 5.65a8.06 8.06 0 005.66 2.35c2.11 0 4.17-.86 5.66-2.35a8.045 8.045 0 002.34-5.65c0-2.11-.85-4.17-2.34-5.66a8.05 8.05 0 00-5.66-2.34zm-23.67 0c-2.1 0-4.17.85-5.65 2.34a8.06 8.06 0 00-2.35 5.66c0 2.1.86 4.16 2.35 5.65a8.054 8.054 0 005.65 2.35c2.11 0 4.17-.86 5.66-2.35a8.045 8.045 0 002.34-5.65c0-2.11-.85-4.17-2.34-5.66a8.05 8.05 0 00-5.66-2.34zm23.67 32.25c-2.11 0-4.17.85-5.66 2.34a8.05 8.05 0 00-2.34 5.66c0 2.1.85 4.16 2.34 5.65a8.06 8.06 0 005.66 2.35c2.11 0 4.17-.86 5.66-2.35a8.045 8.045 0 002.34-5.65c0-2.11-.85-4.17-2.34-5.66a8.05 8.05 0 00-5.66-2.34zm-23.67 0c-2.1 0-4.16.85-5.65 2.34a8.06 8.06 0 00-2.35 5.66c0 2.1.86 4.16 2.35 5.65a8.054 8.054 0 005.65 2.35c2.11 0 4.17-.86 5.66-2.35a8.045 8.045 0 002.34-5.65c0-2.11-.85-4.17-2.34-5.66a8.05 8.05 0 00-5.66-2.34zm79.85 64.08c-2.1 0-4.16.85-5.65 2.34a8.06 8.06 0 00-2.35 5.66c0 2.1.86 4.17 2.35 5.66a8.027 8.027 0 005.65 2.34c2.11 0 4.17-.85 5.66-2.34a8.05 8.05 0 002.34-5.66c0-2.11-.85-4.17-2.34-5.66a8.055 8.055 0 00-5.66-2.34zm32.07 0c-2.11 0-4.17.85-5.66 2.34a8.05 8.05 0 00-2.34 5.66c0 2.11.85 4.17 2.34 5.66a8.068 8.068 0 005.66 2.34c2.11 0 4.17-.85 5.66-2.34a8.05 8.05 0 002.34-5.66c0-2.11-.85-4.17-2.34-5.66a8.055 8.055 0 00-5.66-2.34zm32.07 0c-2.11 0-4.17.85-5.66 2.34-1.49 1.49-2.34 3.56-2.34 5.66s.85 4.17 2.34 5.66a8.05 8.05 0 005.66 2.34c2.1 0 4.16-.85 5.65-2.34 1.49-1.49 2.35-3.56 2.35-5.66s-.86-4.17-2.35-5.66a8.049 8.049 0 00-5.65-2.34zm32.06 0c-2.1 0-4.17.85-5.65 2.34a8.06 8.06 0 00-2.35 5.66c0 2.11.86 4.17 2.35 5.66a8.027 8.027 0 005.65 2.34c2.11 0 4.17-.85 5.66-2.34a8.05 8.05 0 002.34-5.66c0-2.11-.85-4.17-2.34-5.66a8.055 8.055 0 00-5.66-2.34zm32.07 0c-2.1 0-4.17.85-5.66 2.34a8.05 8.05 0 00-2.34 5.66c0 2.11.85 4.17 2.34 5.66a8.068 8.068 0 005.66 2.34c2.11 0 4.17-.85 5.66-2.34a8.05 8.05 0 002.34-5.66c0-2.11-.85-4.17-2.34-5.66a8.055 8.055 0 00-5.66-2.34zm32.07 0c-2.11 0-4.17.85-5.66 2.34a8.05 8.05 0 00-2.34 5.66c0 2.11.85 4.17 2.34 5.66a8.05 8.05 0 005.66 2.34c2.1 0 4.16-.85 5.65-2.34a8.06 8.06 0 002.35-5.66c0-2.11-.86-4.17-2.35-5.66a8.049 8.049 0 00-5.65-2.34z"/></g></svg>