<svg width="229" height="58" fill="none" xmlns="http://www.w3.org/2000/svg"><path d="M0 21.347h4.494l2.612-4.691h8.68l.982 4.69h4.298L16.628 1.125h-5.056L0 21.347zm8.96-8.005l4.494-8.062 1.657 8.062H8.96zm19.375 8.342c2.022 0 3.174-.703 3.174-.703l-.337-2.752s-.871.28-1.657.28c-1.854 0-1.49-1.825-1.236-3.398l.842-4.747h3.876l.562-3.174h-3.876l.702-4.016h-4.073L25.61 7.19h-2.612l-.562 3.174h2.613l-.815 4.747c-.646 3.483-.309 6.573 4.1 6.573zm5.676-.337h4.073L41.848 0h-4.073l-3.764 21.347zM54.79 7.19l-.422 2.472c-.394-1.067-1.742-2.752-4.41-2.752-4.944 0-8.117 4.016-8.117 8.763 0 3.399 2.162 5.955 5.786 5.955 2.78 0 4.381-1.517 5.084-2.613l-.422 2.332h4.073l2.5-14.157h-4.073zm-5.73 11.264c-2.023 0-3.09-1.32-3.09-3.202 0-2.64 1.77-5.168 4.578-5.168 1.994 0 3.061 1.32 3.061 3.202 0 2.612-1.713 5.168-4.55 5.168zM61.883 7.19l-2.5 14.157h4.073l1.292-7.303c.365-2.191 1.685-3.96 3.96-3.96 2.472 0 2.556 2.078 2.247 3.876l-1.292 7.387h4.073l1.292-7.387c.646-3.708-.45-7.05-4.831-7.05-2.303 0-3.876 1.348-4.635 2.5l.394-2.22h-4.073zm21.311 14.494c2.022 0 3.174-.703 3.174-.703l-.337-2.752s-.871.28-1.658.28c-1.853 0-1.488-1.825-1.236-3.398l.843-4.747h3.876l.562-3.174h-3.876l.702-4.016h-4.073L80.47 7.19h-2.612l-.562 3.174h2.612l-.814 4.747c-.646 3.483-.31 6.573 4.1 6.573zM93.982 5.056c1.405 0 2.444-1.124 2.444-2.5 0-1.011-.73-1.826-1.826-1.826-1.46 0-2.472 1.124-2.472 2.528 0 .983.73 1.798 1.854 1.798zm-5 16.29h4.073l2.5-14.156h-4.073l-2.5 14.157zm14.901.338c3.651 0 6.039-2.05 6.965-3.876l-3.37-1.011c-.393.477-1.489 1.713-3.23 1.713-2.051 0-3.118-1.32-3.118-3.23 0-2.64 1.742-5.225 4.607-5.225 1.741 0 2.556 1.152 2.808 1.686l3.483-.955c-.421-1.714-2.247-3.904-6.067-3.904-5.027 0-8.96 3.342-8.96 8.622 0 3.736 2.669 6.18 6.882 6.18zm15.493-.337h15.785l2.82-3.427h-13.774l.927-5.28h10.42l2.427-3.343h-12.257l.842-4.747h11.064l2.809-3.426h-17.496l-3.567 20.223z" fill="#404C6F"/><path d="M137.146 21.347h4.578l4.298-5.197 2.527 5.197h4.129l-3.735-7.444 5.898-6.713h-4.578l-3.82 4.663-2.275-4.663h-4.185l3.567 6.657-6.404 7.5zm22.131-2.472c.393 1.067 1.741 2.753 4.409 2.753 4.944 0 8.118-4.017 8.118-8.764 0-3.398-2.163-5.954-5.786-5.954-2.781 0-4.382 1.516-5.084 2.612l.421-2.332h-4.073l-4.604 23.987h4.073l2.526-12.302zm5.308-8.791c2.022 0 3.09 1.32 3.09 3.202 0 2.64-1.77 5.168-4.578 5.168-1.995 0-3.062-1.32-3.062-3.202 0-2.613 1.713-5.168 4.55-5.168zm8.52 11.263h4.073l1.292-7.331c.421-2.416 1.938-3.932 4.213-3.932.871 0 1.545.084 2.107.224l.562-3.146a6.902 6.902 0 00-1.938-.252c-2.472 0-3.82 1.938-4.073 2.387l.337-2.107h-4.073l-2.5 14.157zm15.934-5.899h10.646c1.067-4.494-.731-8.595-6.123-8.595-5.028 0-8.567 3.68-8.567 8.764 0 3.595 2.359 6.067 6.572 6.067 3.652 0 5.983-1.77 7.078-3.006l-2.78-1.32c-.534.393-1.882 1.377-3.736 1.377-2.472 0-3.23-1.461-3.09-3.287zm7.022-2.19h-6.656c.561-1.91 1.881-3.4 3.96-3.4 2.191 0 2.949 1.574 2.696 3.4zm4.439 5.392c.618 1.657 2.837 3.034 6.179 3.034 3.315 0 7.05-1.236 7.05-5.056 0-2.303-1.994-3.399-5.224-3.96-1.573-.337-2.135-.759-2.135-1.377 0-1.151 1.236-1.545 2.304-1.545 1.573 0 2.247.73 2.668 1.18l3.23-1.18c-.534-1.207-2.275-2.893-5.758-2.893-3.061 0-6.6 1.236-6.6 4.747 0 1.882 1.572 3.23 4.971 3.904 1.657.338 2.387.73 2.387 1.545 0 1.32-1.488 1.742-2.724 1.742-1.713 0-2.668-.703-3.118-1.349l-3.23 1.208zm14.428 0c.618 1.657 2.837 3.034 6.179 3.034 3.315 0 7.05-1.236 7.05-5.056 0-2.303-1.994-3.399-5.224-3.96-1.573-.337-2.135-.759-2.135-1.377 0-1.151 1.236-1.545 2.304-1.545 1.572 0 2.247.73 2.668 1.18l3.23-1.18c-.534-1.207-2.275-2.893-5.758-2.893-3.062 0-6.601 1.236-6.601 4.747 0 1.882 1.573 3.23 4.972 3.904 1.657.338 2.387.73 2.387 1.545 0 1.32-1.488 1.742-2.724 1.742-1.713 0-2.668-.703-3.118-1.349l-3.23 1.208zM16.853 51.092h4.24L22.19 44.8h5.477c4.972 0 8.764-3.174 8.764-8.258 0-3.398-2.303-5.673-6.32-5.673h-9.69l-3.567 20.223zm5.954-9.718l1.264-7.079h5.056c2.079 0 3.005 1.068 3.005 2.669 0 2.528-1.629 4.41-4.24 4.41h-5.085zm13.873 9.718h4.072l1.292-7.33c.422-2.416 1.938-3.933 4.213-3.933.871 0 1.545.084 2.107.224l.562-3.145a6.895 6.895 0 00-1.938-.253c-2.472 0-3.82 1.938-4.073 2.387l.337-2.106h-4.073l-2.5 14.156zm18.91.337c5.029 0 8.96-3.342 8.96-8.651 0-3.708-2.78-6.151-7.021-6.151-5.028 0-8.96 3.342-8.96 8.623 0 3.735 2.809 6.179 7.022 6.179zm.226-3.174c-2.05 0-3.118-1.32-3.118-3.23 0-2.64 1.741-5.224 4.606-5.224 2.05 0 3.118 1.32 3.118 3.202 0 2.668-1.741 5.252-4.606 5.252zm15.217-13.454c1.404 0 2.443-1.123 2.443-2.5 0-1.01-.73-1.825-1.826-1.825-1.46 0-2.471 1.123-2.471 2.528 0 .983.73 1.797 1.854 1.797zM60.528 57.3c.168.085 1.292.534 2.893.534 4.297 0 5.87-2.19 6.685-6.797l2.5-14.1h-4.073l-2.472 14.1c-.45 2.528-.927 3.623-2.5 3.623-.842 0-1.573-.197-1.713-.253l-1.32 2.893zm17.595-12.106h10.645c1.068-4.495-.73-8.595-6.123-8.595-5.028 0-8.567 3.68-8.567 8.763 0 3.595 2.36 6.067 6.573 6.067 3.651 0 5.983-1.77 7.078-3.005l-2.78-1.32c-.534.393-1.883 1.376-3.736 1.376-2.472 0-3.23-1.46-3.09-3.286zm7.022-2.191h-6.657c.562-1.91 1.882-3.399 3.96-3.399 2.191 0 2.95 1.573 2.697 3.399zm12.492 8.426c3.651 0 6.039-2.05 6.966-3.876l-3.371-1.011c-.393.477-1.489 1.713-3.23 1.713-2.05 0-3.118-1.32-3.118-3.23 0-2.64 1.742-5.224 4.607-5.224 1.741 0 2.556 1.151 2.808 1.685l3.483-.955c-.421-1.713-2.247-3.904-6.067-3.904-5.027 0-8.96 3.342-8.96 8.623 0 3.735 2.669 6.179 6.882 6.179zm15.71 0c2.022 0 3.174-.702 3.174-.702l-.337-2.753s-.871.281-1.658.281c-1.853 0-1.488-1.826-1.235-3.399l.842-4.746h3.876l.562-3.174h-3.876l.702-4.017h-4.073l-.702 4.017h-2.612l-.562 3.174h2.612l-.814 4.746c-.646 3.483-.309 6.573 4.101 6.573zm31.695-4.999l-3.763-1.068c-.703.899-2.275 2.697-5.14 2.697-2.95 0-5-1.854-5-5.281 0-4.354 2.753-8.876 7.471-8.876 2.921 0 3.933 1.742 4.354 2.669l4.016-1.04c-.617-2.303-3.117-5.055-7.92-5.055-7.359 0-12.218 5.477-12.218 12.583 0 5.252 3.651 8.426 8.819 8.426 4.944 0 8.033-2.556 9.381-5.056zm15.359-9.494l-.422 2.471c-.393-1.067-1.741-2.752-4.41-2.752-4.943 0-8.117 4.016-8.117 8.763 0 3.399 2.163 5.955 5.786 5.955 2.781 0 4.382-1.517 5.084-2.612l-.421 2.331h4.072l2.5-14.156h-4.072zm-5.73 11.263c-2.023 0-3.09-1.32-3.09-3.202 0-2.64 1.769-5.168 4.578-5.168 1.994 0 3.062 1.32 3.062 3.202 0 2.612-1.714 5.168-4.55 5.168zm10.323 2.893h4.073l1.292-7.33c.421-2.416 1.938-3.933 4.213-3.933.871 0 1.545.084 2.107.224l.562-3.145a6.9 6.9 0 00-1.938-.253c-2.472 0-3.82 1.938-4.073 2.387l.337-2.106h-4.073l-2.5 14.156zm17.676.281c2.781 0 4.382-1.517 5.084-2.612l-.253 1.292c-.477 2.78-2.022 4.83-5.028 4.83-2.415 0-3.511-1.067-4.072-1.713l-2.584 1.938c.674 1.152 2.696 2.725 6.375 2.725 5 0 8.455-2.5 9.382-7.78l2.331-13.117h-4.073l-.421 2.471c-.393-1.067-1.741-2.752-4.41-2.752-4.943 0-8.117 4.016-8.117 8.763 0 3.399 2.163 5.955 5.786 5.955zm1.432-3.174c-2.022 0-3.089-1.32-3.089-3.202 0-2.64 1.769-5.168 4.578-5.168 1.994 0 3.062 1.32 3.062 3.202 0 2.612-1.714 5.168-4.551 5.168zm18.127 3.23c5.027 0 8.96-3.342 8.96-8.651 0-3.708-2.781-6.151-7.022-6.151-5.028 0-8.96 3.342-8.96 8.623 0 3.735 2.808 6.179 7.022 6.179zm.224-3.174c-2.05 0-3.117-1.32-3.117-3.23 0-2.64 1.741-5.224 4.606-5.224 2.05 0 3.118 1.32 3.118 3.202 0 2.668-1.742 5.252-4.607 5.252z" fill="#404C6F"/><path d="M3.511 25.56h224l-2.809 2.808H0l3.511-2.808z" fill="#404C6F"/></svg>