<svg width="327" height="83" fill="none" xmlns="http://www.w3.org/2000/svg"><path d="M0 30.4h6.4l3.72-6.68h12.36l1.4 6.68H30L23.68 1.6h-7.2L0 30.4zM12.76 19l6.4-11.48L21.52 19h-8.76zm27.592 11.88c2.88 0 4.52-1 4.52-1l-.48-3.92s-1.24.4-2.36.4c-2.64 0-2.12-2.6-1.76-4.84l1.2-6.76h5.52l.8-4.52h-5.52l1-5.72h-5.8l-1 5.72h-3.72l-.8 4.52h3.72l-1.16 6.76c-.92 4.96-.44 9.36 5.84 9.36zm8.084-.48h5.8L59.596 0h-5.8l-5.36 30.4zm29.59-20.16l-.6 3.52c-.56-1.52-2.48-3.92-6.28-3.92-7.04 0-11.56 5.72-11.56 12.48 0 4.84 3.08 8.48 8.24 8.48 3.96 0 6.24-2.16 7.24-3.72l-.6 3.32h5.8l3.56-20.16h-5.8zm-8.16 16.04c-2.88 0-4.4-1.88-4.4-4.56 0-3.76 2.52-7.36 6.52-7.36 2.84 0 4.36 1.88 4.36 4.56 0 3.72-2.44 7.36-6.48 7.36zm18.262-16.04l-3.56 20.16h5.8l1.84-10.4c.52-3.12 2.4-5.64 5.64-5.64 3.52 0 3.64 2.96 3.2 5.52l-1.84 10.52h5.8l1.84-10.52c.92-5.28-.64-10.04-6.88-10.04-3.28 0-5.52 1.92-6.6 3.56l.56-3.16h-5.8zm30.349 20.64c2.88 0 4.52-1 4.52-1l-.48-3.92s-1.24.4-2.36.4c-2.64 0-2.12-2.6-1.76-4.84l1.2-6.76h5.52l.8-4.52h-5.52l1-5.72h-5.8l-1 5.72h-3.72l-.8 4.52h3.72l-1.16 6.76c-.92 4.96-.44 9.36 5.84 9.36zM133.841 7.2c2 0 3.48-1.6 3.48-3.56 0-1.44-1.04-2.6-2.6-2.6-2.08 0-3.52 1.6-3.52 3.6 0 1.4 1.04 2.56 2.64 2.56zm-7.12 23.2h5.8l3.56-20.16h-5.8l-3.56 20.16zm21.219.48c5.2 0 8.6-2.92 9.92-5.52l-4.8-1.44c-.56.68-2.12 2.44-4.6 2.44-2.92 0-4.44-1.88-4.44-4.6 0-3.76 2.48-7.44 6.56-7.44 2.48 0 3.64 1.64 4 2.4l4.96-1.36c-.6-2.44-3.2-5.56-8.64-5.56-7.16 0-12.76 4.76-12.76 12.28 0 5.32 3.8 8.8 9.8 8.8zm22.064-.48h22.48l4.016-4.88h-19.616l1.32-7.52h14.84l3.456-4.76h-17.456l1.2-6.76H196l4-4.88h-24.916l-5.08 28.8z" fill="#fff"/><path d="M195.311 30.4h6.52l6.12-7.4 3.6 7.4h5.88l-5.32-10.6 8.4-9.56h-6.52l-5.44 6.64-3.24-6.64h-5.96l5.08 9.48-9.12 10.68zm31.516-3.52c.56 1.52 2.48 3.92 6.28 3.92 7.04 0 11.56-5.72 11.56-12.48 0-4.84-3.08-8.48-8.24-8.48-3.96 0-6.24 2.16-7.24 3.72l.6-3.32h-5.8l-6.556 34.16h5.8l3.596-17.52zm7.56-12.52c2.88 0 4.4 1.88 4.4 4.56 0 3.76-2.52 7.36-6.52 7.36-2.84 0-4.36-1.88-4.36-4.56 0-3.72 2.44-7.36 6.48-7.36zm12.134 16.04h5.8l1.84-10.44c.6-3.44 2.76-5.6 6-5.6 1.24 0 2.2.12 3 .32l.8-4.48c-.72-.2-1.56-.36-2.76-.36-3.52 0-5.44 2.76-5.8 3.4l.48-3h-5.8l-3.56 20.16zm22.692-8.4h15.16c1.52-6.4-1.04-12.24-8.72-12.24-7.16 0-12.2 5.24-12.2 12.48 0 5.12 3.36 8.64 9.36 8.64 5.2 0 8.52-2.52 10.08-4.28l-3.96-1.88c-.76.56-2.68 1.96-5.32 1.96-3.52 0-4.6-2.08-4.4-4.68zm10-3.12h-9.48c.8-2.72 2.68-4.84 5.64-4.84 3.12 0 4.2 2.24 3.84 4.84zm6.321 7.68c.88 2.36 4.04 4.32 8.8 4.32 4.72 0 10.04-1.76 10.04-7.2 0-3.28-2.84-4.84-7.44-5.64-2.24-.48-3.04-1.08-3.04-1.96 0-1.64 1.76-2.2 3.28-2.2 2.24 0 3.2 1.04 3.8 1.68l4.6-1.68c-.76-1.72-3.24-4.12-8.2-4.12-4.36 0-9.4 1.76-9.4 6.76 0 2.68 2.24 4.6 7.08 5.56 2.36.48 3.4 1.04 3.4 2.2 0 1.88-2.12 2.48-3.88 2.48-2.44 0-3.8-1-4.44-1.92l-4.6 1.72zm20.547 0c.88 2.36 4.04 4.32 8.8 4.32 4.72 0 10.04-1.76 10.04-7.2 0-3.28-2.84-4.84-7.44-5.64-2.24-.48-3.04-1.08-3.04-1.96 0-1.64 1.76-2.2 3.28-2.2 2.24 0 3.2 1.04 3.8 1.68l4.6-1.68c-.76-1.72-3.24-4.12-8.2-4.12-4.36 0-9.4 1.76-9.4 6.76 0 2.68 2.24 4.6 7.08 5.56 2.36.48 3.4 1.04 3.4 2.2 0 1.88-2.12 2.48-3.88 2.48-2.44 0-3.8-1-4.44-1.92l-4.6 1.72zM24 72.76h6.04l1.56-8.96h7.8c7.08 0 12.48-4.52 12.48-11.76 0-4.84-3.28-8.08-9-8.08h-13.8L24 72.76zm8.48-13.84l1.8-10.08h7.2c2.96 0 4.28 1.52 4.28 3.8 0 3.6-2.32 6.28-6.04 6.28h-7.24zm19.756 13.84h5.8l1.84-10.44c.6-3.44 2.76-5.6 6-5.6 1.24 0 2.2.12 3 .32l.8-4.48c-.72-.2-1.56-.36-2.76-.36-3.52 0-5.44 2.76-5.8 3.4l.48-3h-5.8l-3.56 20.16zm26.932.48c7.16 0 12.76-4.76 12.76-12.32 0-5.28-3.96-8.76-10-8.76-7.16 0-12.76 4.76-12.76 12.28 0 5.32 4 8.8 10 8.8zm.32-4.52c-2.92 0-4.44-1.88-4.44-4.6 0-3.76 2.48-7.44 6.56-7.44 2.92 0 4.44 1.88 4.44 4.56 0 3.8-2.48 7.48-6.56 7.48zm21.67-19.16c2 0 3.48-1.6 3.48-3.56 0-1.44-1.04-2.6-2.6-2.6-2.08 0-3.52 1.6-3.52 3.6 0 1.4 1.04 2.56 2.64 2.56zM86.198 81.6c.24.12 1.84.76 4.12.76 6.12 0 8.36-3.12 9.52-9.68l3.56-20.08h-5.8l-3.52 20.08c-.64 3.6-1.32 5.16-3.56 5.16-1.2 0-2.24-.28-2.44-.36l-1.88 4.12zm25.058-17.24h15.16c1.52-6.4-1.04-12.24-8.72-12.24-7.16 0-12.2 5.24-12.2 12.48 0 5.12 3.36 8.64 9.36 8.64 5.2 0 8.52-2.52 10.08-4.28l-3.96-1.88c-.76.56-2.68 1.96-5.32 1.96-3.52 0-4.6-2.08-4.4-4.68zm10-3.12h-9.48c.8-2.72 2.68-4.84 5.64-4.84 3.12 0 4.2 2.24 3.84 4.84zm17.79 12c5.2 0 8.6-2.92 9.92-5.52l-4.8-1.44c-.56.68-2.12 2.44-4.6 2.44-2.92 0-4.44-1.88-4.44-4.6 0-3.76 2.48-7.44 6.56-7.44 2.48 0 3.64 1.64 4 2.4l4.96-1.36c-.6-2.44-3.2-5.56-8.64-5.56-7.16 0-12.76 4.76-12.76 12.28 0 5.32 3.8 8.8 9.8 8.8zm22.372 0c2.88 0 4.52-1 4.52-1l-.48-3.92s-1.24.4-2.36.4c-2.64 0-2.12-2.6-1.76-4.84l1.2-6.76h5.52l.8-4.52h-5.52l1-5.72h-5.8l-1 5.72h-3.72l-.8 4.52h3.72l-1.16 6.76c-.92 4.96-.44 9.36 5.84 9.36zm45.138-7.12l-5.36-1.52c-1 1.28-3.24 3.84-7.32 3.84-4.2 0-7.12-2.64-7.12-7.52 0-6.2 3.92-12.64 10.64-12.64 4.16 0 5.6 2.48 6.2 3.8l5.72-1.48c-.88-3.28-4.44-7.2-11.28-7.2-10.48 0-17.4 7.8-17.4 17.92 0 7.48 5.2 12 12.56 12 7.04 0 11.44-3.64 13.36-7.2zm21.872-13.52l-.6 3.52c-.56-1.52-2.48-3.92-6.28-3.92-7.04 0-11.56 5.72-11.56 12.48 0 4.84 3.08 8.48 8.24 8.48 3.96 0 6.24-2.16 7.24-3.72l-.6 3.32h5.8l3.56-20.16h-5.8zm-8.16 16.04c-2.88 0-4.4-1.88-4.4-4.56 0-3.76 2.52-7.36 6.52-7.36 2.84 0 4.36 1.88 4.36 4.56 0 3.72-2.44 7.36-6.48 7.36zm14.702 4.12h5.8l1.84-10.44c.6-3.44 2.76-5.6 6-5.6 1.24 0 2.2.12 3 .32l.8-4.48c-.72-.2-1.56-.36-2.76-.36-3.52 0-5.44 2.76-5.8 3.4l.48-3h-5.8l-3.56 20.16zm25.172.4c3.96 0 6.24-2.16 7.24-3.72l-.36 1.84c-.68 3.96-2.88 6.88-7.16 6.88-3.44 0-5-1.52-5.8-2.44l-3.68 2.76c.96 1.64 3.84 3.88 9.08 3.88 7.12 0 12.04-3.56 13.36-11.08l3.32-18.68h-5.8l-.6 3.52c-.56-1.52-2.48-3.92-6.28-3.92-7.04 0-11.56 5.72-11.56 12.48 0 4.84 3.08 8.48 8.24 8.48zm2.04-4.52c-2.88 0-4.4-1.88-4.4-4.56 0-3.76 2.52-7.36 6.52-7.36 2.84 0 4.36 1.88 4.36 4.56 0 3.72-2.44 7.36-6.48 7.36zm25.814 4.6c7.16 0 12.76-4.76 12.76-12.32 0-5.28-3.96-8.76-10-8.76-7.16 0-12.76 4.76-12.76 12.28 0 5.32 4 8.8 10 8.8zm.32-4.52c-2.92 0-4.44-1.88-4.44-4.6 0-3.76 2.48-7.44 6.56-7.44 2.92 0 4.44 1.88 4.44 4.56 0 3.8-2.48 7.48-6.56 7.48z" fill="#fff"/><path d="M5 36.4h319l-4 4H0l5-4z" fill="#fff"/></svg>