<svg width="32" height="32" fill="none" xmlns="http://www.w3.org/2000/svg"><path d="M29.684 24.307a.473.473 0 00.025-.147V7.22a.47.47 0 00-.026-.148l-.006-.02a.476.476 0 00-.088-.146l-.005-.01a.48.48 0 00-.146-.107c-.004 0-.008-.003-.012-.005a.472.472 0 00-.163-.04l-.017-.001-.015-.002H2.699l-.016.002-.015.001a.477.477 0 00-.165.04l-.01.005a.473.473 0 00-.142.104l-.005.004c-.003.002-.003.006-.006.009a.478.478 0 00-.088.147l-.006.02a.47.47 0 00-.025.147v16.94c0 .053.01.103.026.15l.005.019a.48.48 0 00.09.147l.005.009.007.005c.015.017.032.03.05.045l.024.019a.436.436 0 00.066.037l.017.01a.48.48 0 00.188.038H29.23c.067 0 .13-.014.188-.039l.026-.014a.48.48 0 00.058-.032c.01-.007.018-.016.027-.023a.445.445 0 00.046-.041l.008-.007c.003-.003.003-.007.006-.01a.48.48 0 00.088-.146l.007-.02zM3.178 8.304l8.05 7.354-8.05 7.412V8.304zm16.5 6.993c-.033.022-.068.04-.096.07-.01.012-.014.027-.023.04l-3.594 3.282L3.932 7.698h24.066l-8.32 7.6zm-7.74 1.008l3.704 3.385a.477.477 0 00.645 0l3.66-3.343 8.049 7.335H3.925l8.012-7.377zm8.718-.606l8.096-7.395v14.774l-8.096-7.379z" fill="#fff"/></svg>