<svg width="64" height="64" viewBox="0 0 64 64" fill="none" xmlns="http://www.w3.org/2000/svg">
<path d="M62 21V5C62 4.20435 61.6839 3.44129 61.1213 2.87868C60.5587 2.31607 59.7957 2 59 2H43C42.2043 2 41.4413 2.31607 40.8787 2.87868C40.3161 3.44129 40 4.20435 40 5V7.29C34.798 5.61603 29.202 5.61603 24 7.29V5C24 4.20435 23.6839 3.44129 23.1213 2.87868C22.5587 2.31607 21.7956 2 21 2H5C4.20435 2 3.44129 2.31607 2.87868 2.87868C2.31607 3.44129 2 4.20435 2 5V21C2 21.7956 2.31607 22.5587 2.87868 23.1213C3.44129 23.6839 4.20435 24 5 24H7.288C5.57069 29.1951 5.57069 34.8049 7.288 40H5C4.20435 40 3.44129 40.3161 2.87868 40.8787C2.31607 41.4413 2 42.2043 2 43V59C2 59.7957 2.31607 60.5587 2.87868 61.1213C3.44129 61.6839 4.20435 62 5 62H21C21.7956 62 22.5587 61.6839 23.1213 61.1213C23.6839 60.5587 24 59.7957 24 59V56.712C29.1951 58.4293 34.8049 58.4293 40 56.712V59C40 59.7957 40.3161 60.5587 40.8787 61.1213C41.4413 61.6839 42.2043 62 43 62H59C59.7957 62 60.5587 61.6839 61.1213 61.1213C61.6839 60.5587 62 59.7957 62 59V43C62 42.2043 61.6839 41.4413 61.1213 40.8787C60.5587 40.3161 59.7957 40 59 40H56.712C58.4293 34.8049 58.4293 29.1951 56.712 24H59C59.7957 24 60.5587 23.6839 61.1213 23.1213C61.6839 22.5587 62 21.7956 62 21ZM59 22H43C42.7348 22 42.4804 21.8946 42.2929 21.7071C42.1054 21.5196 42 21.2652 42 21V10H48V13C48 13.1978 48.0587 13.391 48.1686 13.5555C48.2785 13.7199 48.4346 13.848 48.6173 13.9237C48.8 13.9993 49.0011 14.0192 49.195 13.9806C49.389 13.942 49.5672 13.8468 49.707 13.707L51 12.414L52.293 13.707C52.4328 13.8468 52.611 13.942 52.805 13.9806C52.9989 14.0192 53.2 13.9993 53.3827 13.9237C53.5654 13.848 53.7215 13.7199 53.8314 13.5555C53.9413 13.391 54 13.1978 54 13V10H60V21C60 21.2652 59.8946 21.5196 59.7071 21.7071C59.5196 21.8946 59.2652 22 59 22ZM50 42H52V48.586L51.707 48.293C51.5195 48.1055 51.2652 48.0002 51 48.0002C50.7348 48.0002 50.4805 48.1055 50.293 48.293L50 48.586V42ZM48 46H42V43C42 42.7348 42.1054 42.4804 42.2929 42.2929C42.4804 42.1054 42.7348 42 43 42H48V46ZM12 42H14V48.586L13.707 48.293C13.5195 48.1055 13.2652 48.0002 13 48.0002C12.7348 48.0002 12.4805 48.1055 12.293 48.293L12 48.586V42ZM16 42H21C21.2652 42 21.5196 42.1054 21.7071 42.2929C21.8946 42.4804 22 42.7348 22 43V46H16V42ZM21 24C21.3663 23.9978 21.7291 23.928 22.07 23.794C22.6241 24.1969 23.2018 24.5662 23.8 24.9C23.3351 26.9018 23.0751 28.9456 23.024 31H17.037C17.2015 28.5135 17.9841 26.1074 19.314 24H21ZM40.385 22.442C40.14 22.607 39.885 22.76 39.635 22.911C39.0782 21.1045 38.2157 19.4069 37.085 17.892C38.1052 18.2593 39.0826 18.736 40 19.314V21C40.0033 21.5056 40.1358 22.002 40.385 22.442ZM37.828 23.828C35.9824 24.6016 34.0012 25 32 25C29.9988 25 28.0176 24.6016 26.172 23.828C27.439 19.752 29.6 17 32 17C34.4 17 36.561 19.752 37.828 23.828ZM25.024 31C25.0774 29.2428 25.2913 27.4942 25.663 25.776C29.7301 27.408 34.27 27.408 38.337 25.776C38.7087 27.4942 38.9226 29.2428 38.976 31H25.024ZM38.976 33C38.9226 34.7572 38.7087 36.5058 38.337 38.224C34.27 36.592 29.7301 36.592 25.663 38.224C25.2913 36.5058 25.0774 34.7572 25.024 33H38.976ZM24.365 22.911C24.111 22.76 23.865 22.611 23.615 22.442C23.8642 22.002 23.9967 21.5056 24 21V19.314C24.9175 18.7362 25.8949 18.2594 26.915 17.892C25.7843 19.4069 24.9218 21.1045 24.365 22.911ZM23.026 33C23.0771 35.0544 23.3371 37.0982 23.802 39.1C23.203 39.4347 22.6246 39.805 22.07 40.209C21.7293 40.074 21.3665 40.0031 21 40H19.321C17.9837 37.8956 17.1982 35.4881 17.037 33H23.026ZM23.615 41.558C23.86 41.393 24.115 41.24 24.365 41.089C24.9219 42.8956 25.7848 44.5933 26.916 46.108C25.8944 45.7404 24.9165 45.2611 24 44.679V43C23.9967 42.4944 23.8642 41.998 23.615 41.558ZM26.172 40.172C28.0176 39.3984 29.9988 39 32 39C34.0012 39 35.9824 39.3984 37.828 40.172C36.561 44.248 34.4 47 32 47C29.6 47 27.439 44.248 26.172 40.172ZM39.635 41.089C39.889 41.24 40.14 41.389 40.385 41.558C40.1358 41.998 40.0033 42.4944 40 43V44.686C39.0826 45.264 38.1052 45.7408 37.085 46.108C38.2157 44.5931 39.0782 42.8955 39.635 41.089ZM43 40C42.6337 40.0022 42.2709 40.072 41.93 40.206C41.3759 39.8031 40.7982 39.4338 40.2 39.1C40.6649 37.0982 40.9249 35.0544 40.976 33H46.965C46.8005 35.4865 46.0179 37.8926 44.688 40H43ZM40.974 31C40.9229 28.9456 40.6629 26.9018 40.198 24.9C40.797 24.5653 41.3754 24.195 41.93 23.791C42.2707 23.926 42.6335 23.9969 43 24H44.686C46.0159 26.1074 46.7985 28.5135 46.963 31H40.974ZM50 4H52V10.586L51.707 10.293C51.5195 10.1055 51.2652 10.0002 51 10.0002C50.7348 10.0002 50.4805 10.1055 50.293 10.293L50 10.586V4ZM60 5V8H54V4H59C59.2652 4 59.5196 4.10536 59.7071 4.29289C59.8946 4.48043 60 4.73478 60 5ZM43 4H48V8H42V5C42 4.73478 42.1054 4.48043 42.2929 4.29289C42.4804 4.10536 42.7348 4 43 4ZM40 9.4V17.007C37.5389 15.6907 34.791 15.0021 32 15.0021C29.209 15.0021 26.4611 15.6907 24 17.007V9.4C29.177 7.574 34.823 7.574 40 9.4ZM22 5V8H16V4H21C21.2652 4 21.5196 4.10536 21.7071 4.29289C21.8946 4.48043 22 4.73478 22 5ZM12 4H14V10.586L13.707 10.293C13.5195 10.1055 13.2652 10.0002 13 10.0002C12.7348 10.0002 12.4805 10.1055 12.293 10.293L12 10.586V4ZM5 4H10V8H4V5C4 4.73478 4.10536 4.48043 4.29289 4.29289C4.48043 4.10536 4.73478 4 5 4ZM4 21V10H10V13C10 13.1978 10.0587 13.391 10.1686 13.5555C10.2785 13.7199 10.4346 13.848 10.6173 13.9237C10.8 13.9993 11.0011 14.0192 11.195 13.9806C11.389 13.942 11.5671 13.8468 11.707 13.707L13 12.414L14.293 13.707C14.4329 13.8468 14.611 13.942 14.805 13.9806C14.9989 14.0192 15.2 13.9993 15.3827 13.9237C15.5654 13.848 15.7215 13.7199 15.8314 13.5555C15.9413 13.391 16 13.1978 16 13V10H22V21C22 21.2652 21.8946 21.5196 21.7071 21.7071C21.5196 21.8946 21.2652 22 21 22H5C4.73478 22 4.48043 21.8946 4.29289 21.7071C4.10536 21.5196 4 21.2652 4 21ZM8 32C8.00143 29.2725 8.47509 26.5659 9.4 24H17.008C15.6907 26.4608 15.0014 29.2088 15.0014 32C15.0014 34.7912 15.6907 37.5392 17.008 40H9.4C8.47509 37.4341 8.00143 34.7275 8 32ZM5 42H10V46H4V43C4 42.7348 4.10536 42.4804 4.29289 42.2929C4.48043 42.1054 4.73478 42 5 42ZM21 60H5C4.73478 60 4.48043 59.8946 4.29289 59.7071C4.10536 59.5196 4 59.2652 4 59V48H10V51C10 51.1978 10.0587 51.391 10.1686 51.5555C10.2785 51.7199 10.4346 51.848 10.6173 51.9237C10.8 51.9993 11.0011 52.0191 11.195 51.9806C11.389 51.942 11.5671 51.8468 11.707 51.707L13 50.414L14.293 51.707C14.4329 51.8468 14.611 51.942 14.805 51.9806C14.9989 52.0191 15.2 51.9993 15.3827 51.9237C15.5654 51.848 15.7215 51.7199 15.8314 51.5555C15.9413 51.391 16 51.1978 16 51V48H22V59C22 59.2652 21.8946 59.5196 21.7071 59.7071C21.5196 59.8946 21.2652 60 21 60ZM24 54.6V46.99C26.4608 48.3073 29.2088 48.9966 32 48.9966C34.7912 48.9966 37.5392 48.3073 40 46.99V54.6C34.823 56.426 29.177 56.426 24 54.6ZM59 60H43C42.7348 60 42.4804 59.8946 42.2929 59.7071C42.1054 59.5196 42 59.2652 42 59V48H48V51C48 51.1978 48.0587 51.391 48.1686 51.5555C48.2785 51.7199 48.4346 51.848 48.6173 51.9237C48.8 51.9993 49.0011 52.0191 49.195 51.9806C49.389 51.942 49.5672 51.8468 49.707 51.707L51 50.414L52.293 51.707C52.4328 51.8468 52.611 51.942 52.805 51.9806C52.9989 52.0191 53.2 51.9993 53.3827 51.9237C53.5654 51.848 53.7215 51.7199 53.8314 51.5555C53.9413 51.391 54 51.1978 54 51V48H60V59C60 59.2652 59.8946 59.5196 59.7071 59.7071C59.5196 59.8946 59.2652 60 59 60ZM60 43V46H54V42H59C59.2652 42 59.5196 42.1054 59.7071 42.2929C59.8946 42.4804 60 42.7348 60 43ZM56 32C55.9986 34.7275 55.5249 37.4341 54.6 40H47C48.3163 37.5389 49.0049 34.791 49.0049 32C49.0049 29.209 48.3163 26.4611 47 24H54.6C55.5249 26.5659 55.9986 29.2725 56 32Z" fill="#247D58"/>
</svg>
