<svg width="64" height="64" viewBox="0 0 64 64" fill="none" xmlns="http://www.w3.org/2000/svg">
<path d="M2.9961 2.00001C2.4469 2.0022 2.00224 2.4469 2.00001 2.9961V47.9961C1.99683 48.5491 2.44308 48.9998 2.9961 49.0019H34.8653C35.914 51.3494 37.1679 53.3835 38.4531 55.0918C40.1331 57.3247 41.8715 59.0089 43.3536 60.1543C44.0945 60.727 44.7737 61.1682 45.3614 61.4766C45.949 61.785 46.5104 62 47 62C47.4896 62 48.0511 61.7849 48.6387 61.4766C49.2263 61.1682 49.8996 60.727 50.6406 60.1543C52.1227 59.0089 53.8689 57.3247 55.5488 55.0918C58.9087 50.626 62 43.9532 62 35.1894C62 34.696 61.6402 34.2764 61.1524 34.2012L51.002 32.6152V2.9961C50.9998 2.44384 50.5503 1.99789 49.9981 2.00001H2.9961ZM16 4.00002L37 4.00195V14H16V4.00002ZM4.00199 4.00195H14C13.9995 18.3346 13.9983 32.6673 14 47H4.00199V4.00195ZM39 4.00195H49V32.3047L47.1563 32.0155C47.0274 31.9966 46.9469 32.0004 46.8456 32.0155L38.998 33.2401L39 4.00195ZM19 5.00001C18.4477 5.00001 18 5.44772 18 5.99999C18 6.55228 18.4477 7.00001 19 7.00002C19.5523 7.00001 20 6.55228 20 5.99999C20 5.44772 19.5523 5.00001 19 5.00001ZM34 5.00001C33.4477 5.00001 33 5.44772 33 5.99999C33 6.55228 33.4477 7.00001 34 7.00002C34.5523 7.00001 35 6.55228 35 5.99999C35 5.44772 34.5523 5.00001 34 5.00001ZM7.00002 5.99999C6.44773 6 6.00002 6.44773 6.00004 7.00002C6.00004 7.5523 6.44775 8 7.00002 8.00001C7.5523 8 8 7.5523 8.00001 7.00002C8.00002 6.44773 7.55231 6 7.00002 5.99999ZM11 5.99999C10.4477 6 10 6.44773 10 7.00002C10 7.5523 10.4477 8 11 8.00001C11.5523 8.00002 12 7.55231 12 7.00002C12 6.44772 11.5523 5.99998 11 5.99999ZM42 5.99999C41.4477 5.99998 41 6.44772 41 7.00002C41 7.55231 41.4477 8.00002 42 8.00001C42.5523 8 43 7.5523 43 7.00002C43 6.44773 42.5523 6 42 5.99999ZM46 5.99999C45.4477 6 45 6.44773 45 7.00002C45 7.5523 45.4477 8 46 8.00001C46.5523 8 47 7.5523 47 7.00002C47 6.44773 46.5523 6 46 5.99999ZM19 11C18.4477 11 18 11.4477 18 12C18 12.5523 18.4477 13 19 13C19.5523 13 20 12.5523 20 12C20 11.4477 19.5523 11 19 11ZM34 11C33.4477 11 33 11.4477 33 12C33 12.5523 33.4477 13 34 13C34.5523 13 35 12.5523 35 12C35 11.4477 34.5523 11 34 11ZM22.5996 15.9961L25.0332 18.2715L18.7539 24.1348L15.9961 21.5625L15.9999 16L22.5996 15.9961ZM25.5332 15.9961H27.4707L26.502 16.9004L25.5332 15.9961ZM30.3945 15.9999H37L36.998 21.5643L22.6094 34.9979L16 34.9998L15.9962 29.4393L30.3945 15.9999ZM15.9961 24.2929L17.291 25.4999L15.9961 26.7089V24.2929ZM36.9981 24.3005V26.697L35.7168 25.4958L36.9981 24.3005ZM34.2481 26.8688L36.9981 29.4372V33.5524L32.8418 34.2009C32.4277 34.2678 32.0994 34.586 32.0195 34.9977H30.3868L27.9668 32.7321L34.2481 26.8688ZM47 34.0153L59.9922 36.0466C59.7896 43.9189 56.9673 49.8802 53.9473 53.8942C52.3772 55.9811 50.7524 57.5476 49.4219 58.5759C48.7567 59.09 48.1604 59.4679 47.709 59.7048C47.2476 59.9644 46.8854 60.0192 47 60.0192C47.1145 60.0192 46.7199 59.9478 46.291 59.7048C45.8396 59.4678 45.2453 59.09 44.5801 58.5759C43.2496 57.5476 41.6209 55.9772 40.0508 53.8903C36.9644 49.788 34.2182 43.872 34.0078 36.0466L47 34.0153ZM26.502 34.0992L27.4629 34.9977H25.5391L26.502 34.0992ZM37.5078 37.4703C37.0225 37.5482 36.6656 37.9671 36.666 38.4586C36.6585 44.4022 38.8453 48.8414 41.168 51.7828C42.3293 53.2535 43.5276 54.3512 44.5195 55.0973C45.0155 55.4703 45.4589 55.7582 45.8418 55.9625C46.2247 56.167 46.6274 56.3374 47 56.3374C47.3727 56.3374 47.7773 56.1666 48.1602 55.9625C48.5431 55.758 48.9845 55.4703 49.4805 55.0973C50.4724 54.3512 51.6668 53.2574 52.8282 51.7867C55.1766 48.803 57.336 44.3911 57.336 38.4586C57.3363 37.9671 56.9795 37.5481 56.4942 37.4703L47.1563 36.0094C47.0497 35.9905 46.9454 35.998 46.8457 36.0094L37.5078 37.4703ZM32.0411 36.9977C32.2266 40.7471 32.9799 44.083 34.0547 46.9996H16V36.9996L32.0411 36.9977ZM19 37.9995C18.4477 37.9996 18 38.4473 18 38.9995C18 39.5518 18.4477 39.9995 19 39.9995C19.5523 39.9995 20 39.5518 20 38.9995C20 38.4473 19.5523 37.9996 19 37.9995ZM47 38.0109L55.3203 39.3175C55.1177 44.3464 53.2321 48.0464 51.2598 50.5441C50.212 51.871 49.1298 52.8639 48.2774 53.505C47.8512 53.8255 47.4793 54.0573 47.2149 54.1984C47.1287 54.2445 47.0663 54.2812 46.9979 54.3019C46.9288 54.283 46.8656 54.2445 46.7791 54.1984C46.5145 54.0574 46.1487 53.8257 45.7224 53.505C44.87 52.8639 43.7879 51.871 42.74 50.5441C40.7677 48.0464 38.8755 44.3231 38.6814 39.3136L47 38.0109ZM51.9824 40.9933C51.7205 41.0009 51.4716 41.1082 51.2891 41.2961L46.0039 46.589L43.709 44.2921C42.7637 43.3468 41.3457 44.7648 42.2911 45.7101L45.2949 48.7062C45.685 49.094 46.315 49.094 46.7051 48.7062L52.7071 42.7062C53.3533 42.0707 52.8885 40.9721 51.9824 40.9933ZM7.00002 43.0011C6.44775 43.0011 6.00004 43.4488 6.00004 44.0011C6.00002 44.5534 6.44773 45.0011 7.00002 45.0011C7.55231 45.0011 8.00002 44.5534 8.00001 44.0011C8 43.4488 7.5523 43.0011 7.00002 43.0011ZM11 43.0011C10.4477 43.0011 10 43.4488 10 44.0011C10 44.5534 10.4477 45.0011 11 45.0011C11.5523 45.0011 12 44.5534 12 44.0011C12 43.4488 11.5523 43.0011 11 43.0011ZM19 44.0011C18.4477 44.0011 18 44.4488 18 45.0011C18 45.5534 18.4477 46.0011 19 46.0011C19.5523 46.0011 20 45.5534 20 45.0011C20 44.4488 19.5523 44.0011 19 44.0011Z" fill="#247D58"/>
</svg>
