<svg width="64" height="64" viewBox="0 0 64 64" fill="none" xmlns="http://www.w3.org/2000/svg">
<path d="M61.8 32.39C61.7041 32.2695 61.5825 32.172 61.4441 32.1045C61.3057 32.0371 61.154 32.0013 61 32H54V20C54 19.7348 53.8946 19.4804 53.7071 19.2929C53.5196 19.1054 53.2652 19 53 19H19C18.7348 19 18.4804 19.1054 18.2929 19.2929C18.1054 19.4804 18 19.7348 18 20V35H17.72L16.95 32.68C16.8811 32.4825 16.7528 32.3112 16.5828 32.1894C16.4127 32.0677 16.2091 32.0015 16 32H15V16C15 15.7348 14.8946 15.4804 14.7071 15.2929C14.5196 15.1054 14.2652 15 14 15H10V12H12V10H10V9H8V10H6V12H8V15H3C2.73478 15 2.48043 15.1054 2.29289 15.2929C2.10536 15.4804 2 15.7348 2 16V20C2 20.2652 2.10536 20.5196 2.29289 20.7071C2.48043 20.8946 2.73478 21 3 21H3.92L3.07 32H3C2.73478 32 2.48043 32.1054 2.29289 32.2929C2.10536 32.4804 2 32.7348 2 33V46.42C2.0008 46.6147 2.05624 46.8053 2.16 46.97L5.16 51.55C5.25236 51.6882 5.37729 51.8015 5.52378 51.8799C5.67027 51.9584 5.83382 51.9996 6 52H56C56.2177 51.9994 56.4292 51.9278 56.6024 51.796C56.7757 51.6643 56.9012 51.4796 56.96 51.27L61.96 33.27C62.0042 33.121 62.0127 32.9638 61.9849 32.8109C61.9571 32.6581 61.8938 32.5139 61.8 32.39ZM37 21H52V27H37V21ZM37 29H52V32.59L49.59 35H37V29ZM20 21H35V27H20V21ZM20 29H35V35H20V29ZM4 17H13V19H4V17ZM13 21V32H5.08L5.93 21H13ZM56.35 46H8V48H55.8L55.24 50H6.54L5.23 48H6V46H4V34H15.28L16.05 36.32C16.1189 36.5175 16.2472 36.6888 16.4172 36.8106C16.5873 36.9323 16.7909 36.9985 17 37H50C50.2651 36.998 50.5193 36.8942 50.71 36.71L53.41 34H59.68L56.35 46Z" fill="#247D58"/>
<path d="M24 31H22V33H24V31Z" fill="#247D58"/>
<path d="M27 31H25V33H27V31Z" fill="#247D58"/>
<path d="M30 31H28V33H30V31Z" fill="#247D58"/>
<path d="M33 31H31V33H33V31Z" fill="#247D58"/>
<path d="M41 31H39V33H41V31Z" fill="#247D58"/>
<path d="M44 31H42V33H44V31Z" fill="#247D58"/>
<path d="M47 31H45V33H47V31Z" fill="#247D58"/>
<path d="M50 31H48V33H50V31Z" fill="#247D58"/>
<path d="M24 23H22V25H24V23Z" fill="#247D58"/>
<path d="M27 23H25V25H27V23Z" fill="#247D58"/>
<path d="M30 23H28V25H30V23Z" fill="#247D58"/>
<path d="M33 23H31V25H33V23Z" fill="#247D58"/>
<path d="M41 23H39V25H41V23Z" fill="#247D58"/>
<path d="M44 23H42V25H44V23Z" fill="#247D58"/>
<path d="M47 23H45V25H47V23Z" fill="#247D58"/>
<path d="M50 23H48V25H50V23Z" fill="#247D58"/>
<path d="M54 40H52V42H54V40Z" fill="#247D58"/>
<path d="M49 40H47V42H49V40Z" fill="#247D58"/>
<path d="M44 40H42V42H44V40Z" fill="#247D58"/>
</svg>
