<svg width="229" height="58" viewBox="0 0 229 58" fill="none" xmlns="http://www.w3.org/2000/svg">
<path d="M0 21.3467H4.49404L7.1062 16.656H15.7853L16.7684 21.3467H21.0658L16.6279 1.12351H11.5722L0 21.3467ZM8.95999 13.3417L13.454 5.2805L15.1112 13.3417H8.95999Z" fill="#404C6F"/>
<path d="M28.3348 21.6837C30.3571 21.6837 31.5087 20.9815 31.5087 20.9815L31.1717 18.2289C31.1717 18.2289 30.301 18.5098 29.5145 18.5098C27.6607 18.5098 28.0259 16.6841 28.2787 15.1112L29.1213 10.3644H32.9974L33.5591 7.19046H29.683L30.3852 3.17392H26.3125L25.6103 7.19046H22.9982L22.4364 10.3644H25.0486L24.234 15.1112C23.588 18.5941 23.9251 21.6837 28.3348 21.6837Z" fill="#404C6F"/>
<path d="M34.0114 21.3467H38.0841L41.8479 0H37.7752L34.0114 21.3467Z" fill="#404C6F"/>
<path d="M54.7891 7.19046L54.3678 9.66218C53.9745 8.59485 52.6263 6.90959 49.958 6.90959C45.0145 6.90959 41.8406 10.9261 41.8406 15.673C41.8406 19.0716 44.0034 21.6276 47.6267 21.6276C50.4074 21.6276 52.0084 20.1108 52.7106 19.0154L52.2893 21.3467H56.362L58.8618 7.19046H54.7891ZM49.0592 18.4536C47.0369 18.4536 45.9695 17.1335 45.9695 15.2516C45.9695 12.6114 47.7391 10.0835 50.5478 10.0835C52.5421 10.0835 53.6094 11.4036 53.6094 13.2855C53.6094 15.8977 51.896 18.4536 49.0592 18.4536Z" fill="#404C6F"/>
<path d="M61.8828 7.19046L59.383 21.3467H63.4557L64.7477 14.0439C65.1129 11.853 66.433 10.0835 68.7081 10.0835C71.1798 10.0835 71.2641 12.162 70.9551 13.9596L69.6631 21.3467H73.7358L75.0278 13.9596C75.6739 10.252 74.5784 6.90959 70.1967 6.90959C67.8936 6.90959 66.3206 8.2578 65.5623 9.40939L65.9555 7.19046H61.8828Z" fill="#404C6F"/>
<path d="M83.1937 21.6837C85.216 21.6837 86.3676 20.9815 86.3676 20.9815L86.0306 18.2289C86.0306 18.2289 85.1598 18.5098 84.3734 18.5098C82.5196 18.5098 82.8847 16.6841 83.1375 15.1112L83.9801 10.3644H87.8563L88.418 7.19046H84.5419L85.2441 3.17392H81.1714L80.4692 7.19046H77.857L77.2953 10.3644H79.9074L79.0929 15.1112C78.4469 18.5941 78.7839 21.6837 83.1937 21.6837Z" fill="#404C6F"/>
<path d="M93.9822 5.05579C95.3866 5.05579 96.4259 3.93228 96.4259 2.55598C96.4259 1.54483 95.6956 0.730282 94.6002 0.730282C93.1396 0.730282 92.1284 1.85379 92.1284 3.25818C92.1284 4.24125 92.8587 5.05579 93.9822 5.05579ZM88.9826 21.3467H93.0554L95.5552 7.19046H91.4824L88.9826 21.3467Z" fill="#404C6F"/>
<path d="M103.883 21.6837C107.534 21.6837 109.922 19.6333 110.848 17.8076L107.478 16.7965C107.085 17.274 105.989 18.5098 104.248 18.5098C102.197 18.5098 101.13 17.1897 101.13 15.2797C101.13 12.6395 102.872 10.0554 105.737 10.0554C107.478 10.0554 108.293 11.207 108.545 11.7407L112.028 10.7857C111.607 9.07234 109.781 6.8815 105.961 6.8815C100.934 6.8815 97.0012 10.2239 97.0012 15.5044C97.0012 19.2401 99.6696 21.6837 103.883 21.6837Z" fill="#404C6F"/>
<path d="M119.376 21.3467H135.161L137.981 17.92H124.207L125.134 12.6395H135.554L137.981 9.29704H125.724L126.566 4.55021H137.63L140.439 1.12351H122.943L119.376 21.3467Z" fill="#404C6F"/>
<path d="M137.146 21.3467H141.724L146.022 16.1505L148.549 21.3467H152.678L148.943 13.9034L154.841 7.19046H150.263L146.443 11.853L144.168 7.19046H139.983L143.55 13.8473L137.146 21.3467Z" fill="#404C6F"/>
<path d="M159.277 18.875C159.67 19.9423 161.018 21.6276 163.686 21.6276C168.63 21.6276 171.804 17.611 171.804 12.8642C171.804 9.46557 169.641 6.90959 166.018 6.90959C163.237 6.90959 161.636 8.42632 160.934 9.52174L161.355 7.19046H157.282L152.678 31.1774H156.751L159.277 18.875ZM164.585 10.0835C166.607 10.0835 167.675 11.4036 167.675 13.2855C167.675 15.9257 165.905 18.4536 163.097 18.4536C161.102 18.4536 160.035 17.1335 160.035 15.2516C160.035 12.6395 161.748 10.0835 164.585 10.0835Z" fill="#404C6F"/>
<path d="M173.105 21.3467H177.178L178.47 14.0158C178.891 11.6002 180.408 10.0835 182.683 10.0835C183.554 10.0835 184.228 10.1678 184.79 10.3082L185.352 7.16237C184.846 7.02193 184.256 6.90959 183.414 6.90959C180.942 6.90959 179.594 8.84764 179.341 9.29704L179.678 7.19046H175.605L173.105 21.3467Z" fill="#404C6F"/>
<path d="M189.039 15.4483H199.685C200.752 10.9542 198.954 6.85341 193.562 6.85341C188.534 6.85341 184.995 10.5329 184.995 15.6168C184.995 19.212 187.354 21.6837 191.567 21.6837C195.219 21.6837 197.55 19.9142 198.645 18.6783L195.865 17.3582C195.331 17.7515 193.983 18.7345 192.129 18.7345C189.657 18.7345 188.899 17.274 189.039 15.4483ZM196.061 13.2574H189.405C189.966 11.3474 191.286 9.8588 193.365 9.8588C195.556 9.8588 196.314 11.4317 196.061 13.2574Z" fill="#404C6F"/>
<path d="M200.5 18.6503C201.118 20.3074 203.337 21.6837 206.679 21.6837C209.994 21.6837 213.729 20.4479 213.729 16.6279C213.729 14.3247 211.735 13.2293 208.505 12.6676C206.932 12.3305 206.37 11.9092 206.37 11.2913C206.37 10.1397 207.606 9.74645 208.674 9.74645C210.247 9.74645 210.921 10.4767 211.342 10.9261L214.572 9.74645C214.038 8.53867 212.297 6.85341 208.814 6.85341C205.753 6.85341 202.214 8.08927 202.214 11.6002C202.214 13.4821 203.786 14.8303 207.185 15.5044C208.842 15.8415 209.572 16.2347 209.572 17.0493C209.572 18.3694 208.084 18.7907 206.848 18.7907C205.135 18.7907 204.18 18.0885 203.73 17.4425L200.5 18.6503Z" fill="#404C6F"/>
<path d="M214.928 18.6503C215.546 20.3074 217.765 21.6837 221.107 21.6837C224.422 21.6837 228.157 20.4479 228.157 16.6279C228.157 14.3247 226.163 13.2293 222.933 12.6676C221.36 12.3305 220.798 11.9092 220.798 11.2913C220.798 10.1397 222.034 9.74645 223.102 9.74645C224.674 9.74645 225.349 10.4767 225.77 10.9261L229 9.74645C228.466 8.53867 226.725 6.85341 223.242 6.85341C220.18 6.85341 216.641 8.08927 216.641 11.6002C216.641 13.4821 218.214 14.8303 221.613 15.5044C223.27 15.8415 224 16.2347 224 17.0493C224 18.3694 222.512 18.7907 221.276 18.7907C219.563 18.7907 218.608 18.0885 218.158 17.4425L214.928 18.6503Z" fill="#404C6F"/>
<path d="M16.8526 51.092H21.0939L22.1893 44.8003H27.6664C32.638 44.8003 36.4298 41.6264 36.4298 36.5425C36.4298 33.1439 34.1266 30.8688 30.1101 30.8688H20.4198L16.8526 51.092ZM22.8072 41.3736L24.0712 34.2955H29.127C31.2055 34.2955 32.1324 35.3629 32.1324 36.9639C32.1324 39.4918 30.5033 41.3736 27.8911 41.3736H22.8072Z" fill="#404C6F"/>
<path d="M36.6795 51.092H40.7522L42.0443 43.7611C42.4656 41.3455 43.9823 39.8288 46.2574 39.8288C47.1282 39.8288 47.8023 39.9131 48.364 40.0535L48.9258 36.9077C48.4202 36.7672 47.8303 36.6549 46.9877 36.6549C44.516 36.6549 43.1678 38.5929 42.915 39.0423L43.252 36.9358H39.1793L36.6795 51.092Z" fill="#404C6F"/>
<path d="M55.5909 51.429C60.6186 51.429 64.5509 48.0866 64.5509 42.778C64.5509 39.0704 61.7702 36.6268 57.529 36.6268C52.5013 36.6268 48.569 39.9692 48.569 45.2497C48.569 48.9854 51.3777 51.429 55.5909 51.429ZM55.8156 48.2551C53.7652 48.2551 52.6979 46.935 52.6979 45.025C52.6979 42.3848 54.4393 39.8007 57.3043 39.8007C59.3547 39.8007 60.422 41.1208 60.422 43.0027C60.422 45.6711 58.6806 48.2551 55.8156 48.2551Z" fill="#404C6F"/>
<path d="M71.0326 34.8011C72.437 34.8011 73.4762 33.6776 73.4762 32.3013C73.4762 31.2901 72.7459 30.4756 71.6505 30.4756C70.1899 30.4756 69.1788 31.5991 69.1788 33.0035C69.1788 33.9866 69.9091 34.8011 71.0326 34.8011ZM60.5278 57.2994C60.6963 57.3836 61.8198 57.833 63.4208 57.833C67.7182 57.833 69.2911 55.6422 70.1057 51.0358L72.6055 36.9358H68.5328L66.061 51.0358C65.6116 53.5637 65.1342 54.6591 63.5612 54.6591C62.7186 54.6591 61.9883 54.4625 61.8479 54.4063L60.5278 57.2994Z" fill="#404C6F"/>
<path d="M78.123 45.1936H88.7682C89.8356 40.6995 88.0379 36.5987 82.6451 36.5987C77.6174 36.5987 74.0783 40.2782 74.0783 45.3621C74.0783 48.9573 76.4377 51.429 80.6509 51.429C84.3023 51.429 86.6336 49.6595 87.729 48.4237L84.9483 47.1035C84.4146 47.4968 83.0664 48.4798 81.2126 48.4798C78.7409 48.4798 77.9825 47.0193 78.123 45.1936ZM85.1449 43.0027H78.4881C79.0499 41.0928 80.37 39.6041 82.4485 39.6041C84.6393 39.6041 85.3977 41.177 85.1449 43.0027Z" fill="#404C6F"/>
<path d="M97.6369 51.429C101.288 51.429 103.676 49.3786 104.603 47.5529L101.232 46.5418C100.839 47.0193 99.7435 48.2551 98.0021 48.2551C95.9517 48.2551 94.8843 46.935 94.8843 45.025C94.8843 42.3848 96.6258 39.8007 99.4907 39.8007C101.232 39.8007 102.047 40.9523 102.299 41.486L105.782 40.531C105.361 38.8176 103.535 36.6268 99.7154 36.6268C94.6877 36.6268 90.7554 39.9692 90.7554 45.2497C90.7554 48.9854 93.4238 51.429 97.6369 51.429Z" fill="#404C6F"/>
<path d="M113.347 51.429C115.369 51.429 116.521 50.7268 116.521 50.7268L116.184 47.9742C116.184 47.9742 115.313 48.2551 114.526 48.2551C112.673 48.2551 113.038 46.4294 113.291 44.8565L114.133 40.1097H118.009L118.571 36.9358H114.695L115.397 32.9192H111.324L110.622 36.9358H108.01L107.448 40.1097H110.06L109.246 44.8565C108.6 48.3394 108.937 51.429 113.347 51.429Z" fill="#404C6F"/>
<path d="M145.042 46.4294L141.279 45.3621C140.576 46.2609 139.004 48.0585 136.139 48.0585C133.189 48.0585 131.139 46.2047 131.139 42.778C131.139 38.4244 133.892 33.9023 138.61 33.9023C141.531 33.9023 142.543 35.6437 142.964 36.5706L146.98 35.5314C146.363 33.2282 143.863 30.4756 139.06 30.4756C131.701 30.4756 126.842 35.9527 126.842 43.0589C126.842 48.3113 130.493 51.4852 135.661 51.4852C140.605 51.4852 143.694 48.9292 145.042 46.4294Z" fill="#404C6F"/>
<path d="M160.401 36.9358L159.979 39.4075C159.586 38.3402 158.238 36.6549 155.569 36.6549C150.626 36.6549 147.452 40.6714 147.452 45.4183C147.452 48.8169 149.615 51.3729 153.238 51.3729C156.019 51.3729 157.62 49.8561 158.322 48.7607L157.901 51.092H161.973L164.473 36.9358H160.401ZM154.671 48.199C152.648 48.199 151.581 46.8788 151.581 44.9969C151.581 42.3567 153.35 39.8288 156.159 39.8288C158.153 39.8288 159.221 41.1489 159.221 43.0308C159.221 45.643 157.507 48.199 154.671 48.199Z" fill="#404C6F"/>
<path d="M164.994 51.092H169.067L170.359 43.7611C170.78 41.3455 172.297 39.8288 174.572 39.8288C175.443 39.8288 176.117 39.9131 176.679 40.0535L177.241 36.9077C176.735 36.7672 176.145 36.6549 175.303 36.6549C172.831 36.6549 171.483 38.5929 171.23 39.0423L171.567 36.9358H167.494L164.994 51.092Z" fill="#404C6F"/>
<path d="M182.67 51.3729C185.451 51.3729 187.052 49.8561 187.754 48.7607L187.501 50.0527C187.024 52.8334 185.479 54.8838 182.473 54.8838C180.058 54.8838 178.962 53.8165 178.401 53.1705L175.817 55.1085C176.491 56.2601 178.513 57.833 182.192 57.833C187.192 57.833 190.647 55.3332 191.574 50.0527L193.905 36.9358H189.832L189.411 39.4075C189.018 38.3402 187.67 36.6549 185.001 36.6549C180.058 36.6549 176.884 40.6714 176.884 45.4183C176.884 48.8169 179.047 51.3729 182.67 51.3729ZM184.102 48.199C182.08 48.199 181.013 46.8788 181.013 44.9969C181.013 42.3567 182.782 39.8288 185.591 39.8288C187.585 39.8288 188.653 41.1489 188.653 43.0308C188.653 45.643 186.939 48.199 184.102 48.199Z" fill="#404C6F"/>
<path d="M202.229 51.429C207.256 51.429 211.189 48.0866 211.189 42.778C211.189 39.0704 208.408 36.6268 204.167 36.6268C199.139 36.6268 195.207 39.9692 195.207 45.2497C195.207 48.9854 198.015 51.429 202.229 51.429ZM202.453 48.2551C200.403 48.2551 199.336 46.935 199.336 45.025C199.336 42.3848 201.077 39.8007 203.942 39.8007C205.992 39.8007 207.06 41.1208 207.06 43.0027C207.06 45.6711 205.318 48.2551 202.453 48.2551Z" fill="#404C6F"/>
<path d="M3.51097 25.5596L227.511 25.5596L224.702 28.3683H0L3.51097 25.5596Z" fill="#404C6F"/>
</svg>
