<svg width="327" height="83" viewBox="0 0 327 83" fill="none" xmlns="http://www.w3.org/2000/svg">
<path d="M0 30.4H6.4L10.12 23.72H22.48L23.88 30.4H30L23.68 1.6H16.48L0 30.4ZM12.76 19L19.16 7.52L21.52 19H12.76Z" fill="white"/>
<path d="M40.3519 30.88C43.2319 30.88 44.8719 29.88 44.8719 29.88L44.3919 25.96C44.3919 25.96 43.1519 26.36 42.0319 26.36C39.3919 26.36 39.9119 23.76 40.2719 21.52L41.4719 14.76H46.9919L47.7919 10.24H42.2719L43.2719 4.52H37.4719L36.4719 10.24H32.7519L31.9519 14.76H35.6719L34.5119 21.52C33.5919 26.48 34.0719 30.88 40.3519 30.88Z" fill="white"/>
<path d="M48.4359 30.4H54.2359L59.5959 0H53.7959L48.4359 30.4Z" fill="white"/>
<path d="M78.0256 10.24L77.4256 13.76C76.8656 12.24 74.9456 9.84 71.1456 9.84C64.1056 9.84 59.5856 15.56 59.5856 22.32C59.5856 27.16 62.6656 30.8 67.8256 30.8C71.7856 30.8 74.0656 28.64 75.0656 27.08L74.4656 30.4H80.2656L83.8256 10.24H78.0256ZM69.8656 26.28C66.9856 26.28 65.4656 24.4 65.4656 21.72C65.4656 17.96 67.9856 14.36 71.9856 14.36C74.8256 14.36 76.3456 16.24 76.3456 18.92C76.3456 22.64 73.9056 26.28 69.8656 26.28Z" fill="white"/>
<path d="M88.1278 10.24L84.5678 30.4H90.3678L92.2078 20C92.7278 16.88 94.6078 14.36 97.8478 14.36C101.368 14.36 101.488 17.32 101.048 19.88L99.2078 30.4H105.008L106.848 19.88C107.768 14.6 106.208 9.84 99.9678 9.84C96.6878 9.84 94.4478 11.76 93.3678 13.4L93.9278 10.24H88.1278Z" fill="white"/>
<path d="M118.477 30.88C121.357 30.88 122.997 29.88 122.997 29.88L122.517 25.96C122.517 25.96 121.277 26.36 120.157 26.36C117.517 26.36 118.037 23.76 118.397 21.52L119.597 14.76H125.117L125.917 10.24H120.397L121.397 4.52H115.597L114.597 10.24H110.877L110.077 14.76H113.797L112.637 21.52C111.717 26.48 112.197 30.88 118.477 30.88Z" fill="white"/>
<path d="M133.841 7.2C135.841 7.2 137.321 5.6 137.321 3.64C137.321 2.2 136.281 1.04 134.721 1.04C132.641 1.04 131.201 2.64 131.201 4.64C131.201 6.04 132.241 7.2 133.841 7.2ZM126.721 30.4H132.521L136.081 10.24H130.281L126.721 30.4Z" fill="white"/>
<path d="M147.94 30.88C153.14 30.88 156.54 27.96 157.86 25.36L153.06 23.92C152.5 24.6 150.94 26.36 148.46 26.36C145.54 26.36 144.02 24.48 144.02 21.76C144.02 18 146.5 14.32 150.58 14.32C153.06 14.32 154.22 15.96 154.58 16.72L159.54 15.36C158.94 12.92 156.34 9.8 150.9 9.8C143.74 9.8 138.14 14.56 138.14 22.08C138.14 27.4 141.94 30.88 147.94 30.88Z" fill="white"/>
<path d="M170.004 30.4H192.484L196.5 25.52H176.884L178.204 18H193.044L196.5 13.24H179.044L180.244 6.48H196L200 1.6H175.084L170.004 30.4Z" fill="white"/>
<path d="M195.311 30.4H201.831L207.951 23L211.551 30.4H217.431L212.111 19.8L220.511 10.24H213.991L208.551 16.88L205.311 10.24H199.351L204.431 19.72L195.311 30.4Z" fill="white"/>
<path d="M226.827 26.88C227.387 28.4 229.307 30.8 233.107 30.8C240.147 30.8 244.667 25.08 244.667 18.32C244.667 13.48 241.587 9.84 236.427 9.84C232.467 9.84 230.187 12 229.187 13.56L229.787 10.24H223.987L217.431 44.4H223.231L226.827 26.88ZM234.387 14.36C237.267 14.36 238.787 16.24 238.787 18.92C238.787 22.68 236.267 26.28 232.267 26.28C229.427 26.28 227.907 24.4 227.907 21.72C227.907 18 230.347 14.36 234.387 14.36Z" fill="white"/>
<path d="M246.521 30.4H252.321L254.161 19.96C254.761 16.52 256.921 14.36 260.161 14.36C261.401 14.36 262.361 14.48 263.161 14.68L263.961 10.2C263.241 10 262.401 9.84 261.201 9.84C257.681 9.84 255.761 12.6 255.401 13.24L255.881 10.24H250.081L246.521 30.4Z" fill="white"/>
<path d="M269.213 22H284.373C285.893 15.6 283.333 9.76 275.653 9.76C268.493 9.76 263.453 15 263.453 22.24C263.453 27.36 266.813 30.88 272.813 30.88C278.013 30.88 281.333 28.36 282.893 26.6L278.933 24.72C278.173 25.28 276.253 26.68 273.613 26.68C270.093 26.68 269.013 24.6 269.213 22ZM279.213 18.88H269.733C270.533 16.16 272.413 14.04 275.373 14.04C278.493 14.04 279.573 16.28 279.213 18.88Z" fill="white"/>
<path d="M285.534 26.56C286.414 28.92 289.574 30.88 294.334 30.88C299.054 30.88 304.374 29.12 304.374 23.68C304.374 20.4 301.534 18.84 296.934 18.04C294.694 17.56 293.894 16.96 293.894 16.08C293.894 14.44 295.654 13.88 297.174 13.88C299.414 13.88 300.374 14.92 300.974 15.56L305.574 13.88C304.814 12.16 302.334 9.76 297.374 9.76C293.014 9.76 287.974 11.52 287.974 16.52C287.974 19.2 290.214 21.12 295.054 22.08C297.414 22.56 298.454 23.12 298.454 24.28C298.454 26.16 296.334 26.76 294.574 26.76C292.134 26.76 290.774 25.76 290.134 24.84L285.534 26.56Z" fill="white"/>
<path d="M306.081 26.56C306.961 28.92 310.121 30.88 314.881 30.88C319.601 30.88 324.921 29.12 324.921 23.68C324.921 20.4 322.081 18.84 317.481 18.04C315.241 17.56 314.441 16.96 314.441 16.08C314.441 14.44 316.201 13.88 317.721 13.88C319.961 13.88 320.921 14.92 321.521 15.56L326.121 13.88C325.361 12.16 322.881 9.76 317.921 9.76C313.561 9.76 308.521 11.52 308.521 16.52C308.521 19.2 310.761 21.12 315.601 22.08C317.961 22.56 319.001 23.12 319.001 24.28C319.001 26.16 316.881 26.76 315.121 26.76C312.681 26.76 311.321 25.76 310.681 24.84L306.081 26.56Z" fill="white"/>
<path d="M24 72.7604H30.04L31.6 63.8004H39.4C46.48 63.8004 51.88 59.2804 51.88 52.0404C51.88 47.2004 48.6 43.9604 42.88 43.9604H29.08L24 72.7604ZM32.48 58.9204L34.28 48.8404H41.48C44.44 48.8404 45.76 50.3604 45.76 52.6404C45.76 56.2404 43.44 58.9204 39.72 58.9204H32.48Z" fill="white"/>
<path d="M52.2356 72.7604H58.0356L59.8756 62.3204C60.4756 58.8804 62.6356 56.7204 65.8756 56.7204C67.1156 56.7204 68.0756 56.8404 68.8756 57.0404L69.6756 52.5604C68.9556 52.3604 68.1156 52.2004 66.9156 52.2004C63.3956 52.2004 61.4756 54.9604 61.1156 55.6004L61.5956 52.6004H55.7956L52.2356 72.7604Z" fill="white"/>
<path d="M79.1675 73.2404C86.3275 73.2404 91.9275 68.4804 91.9275 60.9204C91.9275 55.6404 87.9675 52.1604 81.9275 52.1604C74.7675 52.1604 69.1675 56.9204 69.1675 64.4404C69.1675 69.7604 73.1675 73.2404 79.1675 73.2404ZM79.4875 68.7204C76.5675 68.7204 75.0475 66.8404 75.0475 64.1204C75.0475 60.3604 77.5275 56.6804 81.6075 56.6804C84.5275 56.6804 86.0475 58.5604 86.0475 61.2404C86.0475 65.0404 83.5675 68.7204 79.4875 68.7204Z" fill="white"/>
<path d="M101.158 49.5604C103.158 49.5604 104.638 47.9604 104.638 46.0004C104.638 44.5604 103.598 43.4004 102.038 43.4004C99.9581 43.4004 98.5181 45.0004 98.5181 47.0004C98.5181 48.4004 99.5581 49.5604 101.158 49.5604ZM86.1981 81.6004C86.4381 81.7204 88.0381 82.3604 90.3181 82.3604C96.4381 82.3604 98.6781 79.2404 99.8381 72.6804L103.398 52.6004H97.5981L94.0781 72.6804C93.4381 76.2804 92.7581 77.8404 90.5181 77.8404C89.3181 77.8404 88.2781 77.5604 88.0781 77.4804L86.1981 81.6004Z" fill="white"/>
<path d="M111.256 64.3604H126.416C127.936 57.9604 125.376 52.1204 117.696 52.1204C110.536 52.1204 105.496 57.3604 105.496 64.6004C105.496 69.7204 108.856 73.2404 114.856 73.2404C120.056 73.2404 123.376 70.7204 124.936 68.9604L120.976 67.0804C120.216 67.6404 118.296 69.0404 115.656 69.0404C112.136 69.0404 111.056 66.9604 111.256 64.3604ZM121.256 61.2404H111.776C112.576 58.5204 114.456 56.4004 117.416 56.4004C120.536 56.4004 121.616 58.6404 121.256 61.2404Z" fill="white"/>
<path d="M139.046 73.2404C144.246 73.2404 147.646 70.3204 148.966 67.7204L144.166 66.2804C143.606 66.9604 142.046 68.7204 139.566 68.7204C136.646 68.7204 135.126 66.8404 135.126 64.1204C135.126 60.3604 137.606 56.6804 141.686 56.6804C144.166 56.6804 145.326 58.3204 145.686 59.0804L150.646 57.7204C150.046 55.2804 147.446 52.1604 142.006 52.1604C134.846 52.1604 129.246 56.9204 129.246 64.4404C129.246 69.7604 133.046 73.2404 139.046 73.2404Z" fill="white"/>
<path d="M161.418 73.2404C164.298 73.2404 165.938 72.2404 165.938 72.2404L165.458 68.3204C165.458 68.3204 164.218 68.7204 163.098 68.7204C160.458 68.7204 160.978 66.1204 161.338 63.8804L162.538 57.1204H168.058L168.858 52.6004H163.338L164.338 46.8804H158.538L157.538 52.6004H153.818L153.018 57.1204H156.738L155.578 63.8804C154.658 68.8404 155.138 73.2404 161.418 73.2404Z" fill="white"/>
<path d="M206.556 66.1204L201.196 64.6004C200.196 65.8804 197.956 68.4404 193.876 68.4404C189.676 68.4404 186.756 65.8004 186.756 60.9204C186.756 54.7204 190.676 48.2804 197.396 48.2804C201.556 48.2804 202.996 50.7604 203.596 52.0804L209.316 50.6004C208.436 47.3204 204.876 43.4004 198.036 43.4004C187.556 43.4004 180.636 51.2004 180.636 61.3204C180.636 68.8004 185.836 73.3204 193.196 73.3204C200.236 73.3204 204.636 69.6804 206.556 66.1204Z" fill="white"/>
<path d="M228.428 52.6004L227.828 56.1204C227.268 54.6004 225.348 52.2004 221.548 52.2004C214.508 52.2004 209.988 57.9204 209.988 64.6804C209.988 69.5204 213.068 73.1604 218.228 73.1604C222.188 73.1604 224.468 71.0004 225.468 69.4404L224.868 72.7604H230.668L234.228 52.6004H228.428ZM220.268 68.6404C217.388 68.6404 215.868 66.7604 215.868 64.0804C215.868 60.3204 218.388 56.7204 222.388 56.7204C225.228 56.7204 226.748 58.6004 226.748 61.2804C226.748 65.0004 224.308 68.6404 220.268 68.6404Z" fill="white"/>
<path d="M234.97 72.7604H240.77L242.61 62.3204C243.21 58.8804 245.37 56.7204 248.61 56.7204C249.85 56.7204 250.81 56.8404 251.61 57.0404L252.41 52.5604C251.69 52.3604 250.85 52.2004 249.65 52.2004C246.13 52.2004 244.21 54.9604 243.85 55.6004L244.33 52.6004H238.53L234.97 72.7604Z" fill="white"/>
<path d="M260.142 73.1604C264.102 73.1604 266.382 71.0004 267.382 69.4404L267.022 71.2804C266.342 75.2404 264.142 78.1604 259.862 78.1604C256.422 78.1604 254.862 76.6404 254.062 75.7204L250.382 78.4804C251.342 80.1204 254.222 82.3604 259.462 82.3604C266.582 82.3604 271.502 78.8004 272.822 71.2804L276.142 52.6004H270.342L269.742 56.1204C269.182 54.6004 267.262 52.2004 263.462 52.2004C256.422 52.2004 251.902 57.9204 251.902 64.6804C251.902 69.5204 254.982 73.1604 260.142 73.1604ZM262.182 68.6404C259.302 68.6404 257.782 66.7604 257.782 64.0804C257.782 60.3204 260.302 56.7204 264.302 56.7204C267.142 56.7204 268.662 58.6004 268.662 61.2804C268.662 65.0004 266.222 68.6404 262.182 68.6404Z" fill="white"/>
<path d="M287.996 73.2404C295.156 73.2404 300.756 68.4804 300.756 60.9204C300.756 55.6404 296.796 52.1604 290.756 52.1604C283.596 52.1604 277.996 56.9204 277.996 64.4404C277.996 69.7604 281.996 73.2404 287.996 73.2404ZM288.316 68.7204C285.396 68.7204 283.876 66.8404 283.876 64.1204C283.876 60.3604 286.356 56.6804 290.436 56.6804C293.356 56.6804 294.876 58.5604 294.876 61.2404C294.876 65.0404 292.396 68.7204 288.316 68.7204Z" fill="white"/>
<path d="M5 36.4004L324 36.4004L320 40.4004H0L5 36.4004Z" fill="white"/>
</svg>
