<svg width="32" height="32" viewBox="0 0 32 32" fill="none" xmlns="http://www.w3.org/2000/svg">
<path d="M29.6837 24.3066C29.6987 24.2603 29.7089 24.2116 29.7089 24.1602V7.21921C29.7089 7.16755 29.6987 7.11844 29.6834 7.07189C29.6811 7.06551 29.6799 7.05913 29.6773 7.05275C29.6569 6.99823 29.6269 6.94912 29.5893 6.90607C29.5867 6.9032 29.5864 6.89969 29.5839 6.89682C29.5823 6.89523 29.5804 6.89459 29.5788 6.893C29.5386 6.85027 29.4911 6.81583 29.4378 6.79C29.4337 6.78809 29.4305 6.78553 29.4264 6.78362C29.376 6.76098 29.3211 6.74823 29.2634 6.7444C29.2577 6.74408 29.2523 6.74281 29.2465 6.74281C29.2411 6.74249 29.2363 6.74121 29.2309 6.74121H2.69921C2.69379 6.74121 2.68868 6.74249 2.68326 6.74281C2.67816 6.74312 2.67306 6.74408 2.66796 6.7444C2.6096 6.74823 2.5538 6.7613 2.50278 6.78426C2.49959 6.78553 2.49704 6.78777 2.49385 6.78904C2.43965 6.81487 2.3915 6.84995 2.351 6.89332C2.34941 6.89491 2.34749 6.89523 2.3459 6.89682C2.34335 6.89937 2.34303 6.90288 2.34048 6.90575C2.30285 6.9488 2.27256 6.99823 2.25215 7.05275C2.2496 7.05913 2.24832 7.06551 2.24609 7.07221C2.23078 7.11876 2.22058 7.16787 2.22058 7.21953V24.1609C2.22058 24.2131 2.2311 24.2629 2.24673 24.3101C2.24896 24.3165 2.25024 24.3225 2.25247 24.3289C2.27319 24.3837 2.30381 24.4332 2.34175 24.4762C2.34398 24.4788 2.34462 24.482 2.34685 24.4845C2.34877 24.4867 2.35132 24.488 2.35355 24.4903C2.36917 24.5065 2.38639 24.5209 2.40425 24.5349C2.41222 24.541 2.41924 24.5483 2.42753 24.554C2.44857 24.5687 2.47121 24.5805 2.49449 24.5913C2.50023 24.5939 2.50533 24.598 2.51107 24.6003C2.56879 24.6248 2.63224 24.6389 2.69889 24.6389H29.2303C29.2969 24.6389 29.3604 24.6251 29.4181 24.6003C29.427 24.5964 29.4353 24.5907 29.4439 24.5862C29.4637 24.5764 29.4834 24.5661 29.5016 24.5537C29.5112 24.547 29.5198 24.5384 29.529 24.5311C29.5453 24.518 29.5612 24.5049 29.5753 24.4899C29.5778 24.4874 29.5807 24.4855 29.5832 24.4829C29.5858 24.4801 29.5864 24.4762 29.589 24.4734C29.6263 24.4306 29.6563 24.3815 29.6767 24.3273C29.6799 24.3203 29.6815 24.3136 29.6837 24.3066ZM3.17751 8.30403L11.2281 15.6577L3.17751 23.07V8.30403ZM19.6778 15.2973C19.6447 15.319 19.6096 15.3372 19.5818 15.3678C19.5713 15.3793 19.5678 15.3943 19.5586 15.4064L15.9649 18.6889L3.93196 7.69752H27.9978L19.6778 15.2973ZM11.9372 16.3053L15.6422 19.6896C15.7337 19.7731 15.8491 19.8149 15.9649 19.8149C16.0806 19.8149 16.1961 19.7731 16.2873 19.6896L19.9463 16.3474L27.9956 23.6822H3.92495L11.9372 16.3053ZM20.6558 15.6994L28.7523 8.30403V23.0776L20.6558 15.6994Z" fill="white"/>
</svg>
